<svg width="247" height="63" viewBox="0 0 247 63" fill="none" xmlns="http://www.w3.org/2000/svg">
<g clip-path="url(#clip0_2107_8968)">
<path d="M2.11035 19.1489V43.8511C2.11035 45.4231 2.94645 46.8787 4.31013 47.6654L25.6656 60.0098C27.0293 60.7966 28.7015 60.7966 30.0652 60.0098L51.4206 47.6654C52.7843 46.8787 53.6204 45.4231 53.6204 43.8511V19.1489C53.6204 17.5769 52.7843 16.1214 51.4206 15.3346L30.0652 2.9902C28.7015 2.20346 27.0293 2.20346 25.6656 2.9902L4.31013 15.3346C2.95986 16.1214 2.11035 17.5769 2.11035 19.1489Z" fill="#213147"/>
<path d="M32.5347 36.2868L29.4854 44.6498C29.396 44.8812 29.396 45.1394 29.4854 45.3708L34.7211 59.7649L40.7809 56.2597L33.5124 36.2868C33.3455 35.8225 32.7016 35.8225 32.5347 36.2868Z" fill="#12AAFF"/>
<path d="M38.6318 22.2152C38.4648 21.7509 37.821 21.7509 37.6541 22.2152L34.6048 30.5781C34.5154 30.8095 34.5154 31.0678 34.6048 31.2992L43.1848 54.8684L49.2447 51.3632L38.6318 22.2152Z" fill="#12AAFF"/>
<path d="M27.8654 3.90382C28.0204 3.90382 28.162 3.94263 28.3021 4.02026L51.4072 17.3828C51.677 17.5381 51.8439 17.8202 51.8439 18.1307V44.8558C51.8439 45.1649 51.677 45.4485 51.4072 45.6038L28.3021 58.9797C28.1739 59.0574 28.0189 59.0962 27.8654 59.0962C27.7119 59.0962 27.5688 59.0574 27.4287 58.9797L4.33548 45.6172C4.06572 45.4619 3.8988 45.1798 3.8988 44.8693V18.1307C3.8988 17.8217 4.06572 17.5381 4.33548 17.3828L27.4406 4.02026C27.5688 3.94263 27.7238 3.90382 27.8654 3.90382ZM27.8654 0C27.0427 0 26.2185 0.21945 25.4853 0.644914L2.38012 14.0075C0.913595 14.8569 0 16.4304 0 18.1307V44.8558C0 46.5562 0.913595 48.1416 2.38012 48.9925L25.4853 62.3551C26.2185 62.7805 27.0412 63 27.8654 63C28.6896 63 29.5122 62.7805 30.2455 62.3551L53.3507 48.9925C54.8306 48.1416 55.7308 46.5696 55.7308 44.8558V18.1307C55.7308 16.4304 54.8172 14.845 53.3507 13.994L30.2574 0.644914C29.5108 0.21945 28.6881 0 27.8639 0H27.8654Z" fill="#9DCCED"/>
<path d="M12.5951 54.8953L14.7174 49.0702L18.9888 52.6262L15.0005 56.2867L12.5951 54.8953Z" fill="#213147"/>
<path d="M25.922 16.2229H20.0693C19.6326 16.2229 19.2332 16.4931 19.0916 16.9051L6.53528 51.3886L12.5951 54.8938L26.4242 16.9186C26.5405 16.5842 26.296 16.2229 25.922 16.2229Z" fill="white"/>
<path d="M36.1757 16.2229H30.323C29.8864 16.2229 29.4869 16.4931 29.3454 16.9051L15.0021 56.2852L21.0619 59.7904L36.6646 16.932C36.7927 16.5842 36.5364 16.2229 36.1757 16.2229Z" fill="white"/>
<path d="M80.6736 23.4005C81.2518 23.4005 81.7541 23.517 82.1535 23.7618C82.5529 24.0066 82.9509 24.4709 83.3369 25.1666L90.978 39.0576C91.0555 39.2128 91.0674 39.3412 91.0301 39.4442C90.9914 39.5472 90.8751 39.5995 90.6963 39.5995H87.7633C87.5054 39.5995 87.3266 39.4965 87.2357 39.3024L85.6022 36.3257H74.7568L73.1621 39.3024C73.0593 39.5084 72.879 39.5995 72.6345 39.5995H69.6374C69.4318 39.5995 69.3155 39.5472 69.2768 39.4442C69.238 39.3412 69.2514 39.2128 69.3289 39.0576L76.9059 25.1666C77.2919 24.4709 77.6645 24.0066 78.0386 23.7618C78.4112 23.517 78.836 23.4005 79.3248 23.4005H80.6751H80.6736ZM76.1831 33.6191H84.1327L80.4664 26.8415C80.4023 26.7385 80.3248 26.6743 80.2086 26.6743H80.067C79.9642 26.6743 79.8748 26.7266 79.8092 26.8415L76.1816 33.6191H76.1831Z" fill="#213147"/>
<path d="M107.767 23.4005C109.542 23.4005 110.803 23.8006 111.575 24.5993C112.347 25.398 112.733 26.5833 112.733 28.1553V29.469C112.733 30.7961 112.463 31.8396 111.922 32.6129C111.381 33.3862 110.506 33.8759 109.284 34.0953L113.234 38.9919C113.311 39.0695 113.337 39.1845 113.298 39.3397C113.272 39.495 113.143 39.5711 112.925 39.5711H109.953C109.748 39.5711 109.62 39.5457 109.542 39.5069C109.465 39.4547 109.387 39.3785 109.311 39.2755L105.658 34.4685H98.1974V39.0695C98.1974 39.4039 98.0304 39.5726 97.6951 39.5726H95.1987C94.8381 39.5726 94.6711 39.4054 94.6711 39.0695V24.0962C94.6711 23.6319 94.9022 23.4005 95.3657 23.4005H107.767ZM98.2093 31.6605H107.047C107.833 31.6605 108.386 31.4933 108.707 31.1574C109.029 30.823 109.196 30.3065 109.196 29.6108V28.6449C109.196 27.9492 109.029 27.4342 108.707 27.0983C108.386 26.7639 107.833 26.5952 107.047 26.5952H98.5044C98.2987 26.5952 98.2078 26.6848 98.2078 26.8789V31.659L98.2093 31.6605Z" fill="#213147"/>
<path d="M132.042 23.4005C133.625 23.4005 134.756 23.723 135.425 24.3544C136.094 24.9859 136.428 25.9399 136.428 27.2148V28.3225C136.428 29.6108 135.939 30.5901 134.948 31.2604C136.003 31.8784 136.543 32.8712 136.543 34.2372V35.5777C136.543 36.1958 136.479 36.7496 136.337 37.2408C136.196 37.7304 135.977 38.1559 135.656 38.5037C135.334 38.8516 134.923 39.1218 134.395 39.3024C133.868 39.483 133.225 39.5861 132.453 39.5861H118.739C118.276 39.5861 118.045 39.3547 118.045 38.8904V24.0977C118.045 23.6334 118.276 23.402 118.739 23.402H132.041L132.042 23.4005ZM121.583 30.1273H131.051C131.823 30.1273 132.337 30.0109 132.62 29.7795C132.904 29.5481 133.032 29.2122 133.032 28.7614V27.9746C133.032 27.4984 132.904 27.1506 132.632 26.9177C132.363 26.6982 131.924 26.5833 131.333 26.5833H121.89C121.684 26.5833 121.593 26.6863 121.593 26.8804V30.1273H121.58H121.583ZM121.583 32.6532V36.0943C121.583 36.3003 121.686 36.3913 121.879 36.3913H131.348C131.965 36.3913 132.403 36.2749 132.659 36.0569C132.915 35.839 133.059 35.4777 133.059 34.9881V34.1118C133.059 33.6355 132.917 33.2743 132.634 33.0294C132.351 32.7846 131.823 32.6562 131.051 32.6562H121.583V32.6532Z" fill="#213147"/>
<path d="M145.151 23.4005C145.485 23.4005 145.654 23.5677 145.654 23.9036V39.071C145.654 39.4054 145.487 39.5741 145.151 39.5741H142.655C142.294 39.5741 142.127 39.4069 142.127 39.071V23.917C142.127 23.5826 142.308 23.4139 142.655 23.4139L145.151 23.4005Z" fill="#213147"/>
<path d="M169.337 23.4005C169.698 23.4005 169.865 23.5677 169.865 23.9036V26.1713C169.865 26.5325 169.684 26.6997 169.337 26.6997H162.094V39.071C162.094 39.4054 161.927 39.5741 161.592 39.5741H159.07C158.736 39.5741 158.568 39.4069 158.568 39.071V26.6997H151.324C150.964 26.6997 150.797 26.5191 150.797 26.1713V23.9036C150.797 23.5692 150.977 23.4005 151.324 23.4005H169.336H169.337Z" fill="#213147"/>
<path d="M187.591 23.4005C189.366 23.4005 190.627 23.8006 191.399 24.5993C192.171 25.398 192.557 26.5833 192.557 28.1553V29.469C192.557 30.7961 192.287 31.8396 191.746 32.6129C191.205 33.3862 190.33 33.8759 189.108 34.0953L193.058 38.9919C193.135 39.0695 193.16 39.1845 193.122 39.3397C193.096 39.495 192.967 39.5711 192.749 39.5711H189.777C189.572 39.5711 189.444 39.5457 189.366 39.5069C189.289 39.4547 189.211 39.3785 189.135 39.2755L185.482 34.4685H178.021V39.0695C178.021 39.4039 177.854 39.5726 177.519 39.5726H175.023C174.662 39.5726 174.495 39.4054 174.495 39.0695V24.0962C174.495 23.6319 174.726 23.4005 175.19 23.4005H187.591ZM178.045 31.6605H186.883C187.668 31.6605 188.221 31.4933 188.543 31.1574C188.865 30.823 189.032 30.3065 189.032 29.6108V28.6449C189.032 27.9492 188.865 27.4342 188.543 27.0983C188.221 26.7639 187.668 26.5952 186.883 26.5952H178.34C178.135 26.5952 178.044 26.6848 178.044 26.8789V31.659L178.045 31.6605Z" fill="#213147"/>
<path d="M200.572 23.4005C200.906 23.4005 201.074 23.5677 201.074 23.9036V33.1295C201.074 33.7475 201.127 34.264 201.229 34.6626C201.332 35.0746 201.499 35.3971 201.732 35.6285C201.963 35.8733 202.273 36.0405 202.671 36.1316C203.07 36.2346 203.559 36.2868 204.162 36.2868H210.556C211.161 36.2868 211.65 36.2346 212.048 36.1316C212.447 36.0286 212.756 35.8614 212.987 35.6285C213.218 35.3837 213.386 35.0612 213.476 34.6626C213.565 34.2506 213.617 33.7475 213.617 33.1295V23.9036C213.617 23.5692 213.784 23.4005 214.12 23.4005H216.641C216.975 23.4005 217.143 23.5677 217.143 23.9036V33.4773C217.143 34.585 217.027 35.5255 216.796 36.3122C216.565 37.0855 216.191 37.717 215.677 38.2067C215.163 38.6963 214.494 39.0441 213.669 39.2636C212.847 39.483 211.856 39.5861 210.684 39.5861H204.033C202.863 39.5861 201.872 39.483 201.061 39.2636C200.25 39.0441 199.581 38.6963 199.067 38.2067C198.553 37.717 198.179 37.0855 197.934 36.3122C197.69 35.5389 197.573 34.585 197.573 33.4773V23.9036C197.573 23.5692 197.754 23.4005 198.101 23.4005H200.571H200.572Z" fill="#213147"/>
<path d="M227.06 23.4005C227.394 23.4005 227.691 23.4259 227.935 23.4647C228.18 23.517 228.399 23.5931 228.579 23.7349C228.759 23.8633 228.926 24.0439 229.081 24.2634C229.223 24.4828 229.378 24.7784 229.531 25.1531L234.33 36.248C234.394 36.3898 234.497 36.454 234.652 36.454H234.935C235.09 36.454 235.193 36.3898 235.257 36.248L240.056 25.1531C240.211 24.7799 240.365 24.4828 240.506 24.2634C240.648 24.0439 240.815 23.8633 241.009 23.7349C241.189 23.6065 241.408 23.5155 241.639 23.4647C241.884 23.4125 242.167 23.4005 242.501 23.4005H244.97C245.767 23.4005 246.308 23.5811 246.592 23.9424C246.875 24.3037 247.003 24.9217 247.003 25.798V39.071C247.003 39.4054 246.823 39.5741 246.475 39.5741H244.121C243.787 39.5741 243.618 39.4069 243.618 39.071V26.9968C243.618 26.8415 243.554 26.7654 243.438 26.7654H243.232C243.077 26.7654 242.975 26.8296 242.936 26.946L238.278 37.3065C238.098 37.7185 237.906 38.0798 237.712 38.3634C237.52 38.647 237.313 38.8784 237.095 39.0725C236.876 39.2531 236.62 39.395 236.336 39.4726C236.053 39.5502 235.719 39.589 235.333 39.589H234.228C233.842 39.589 233.508 39.5502 233.225 39.4726C232.941 39.395 232.684 39.2666 232.466 39.0725C232.247 38.8919 232.029 38.647 231.849 38.3634C231.657 38.0798 231.463 37.7319 231.283 37.3065L226.625 26.946C226.573 26.8177 226.484 26.7654 226.329 26.7654H226.123C225.995 26.7654 225.943 26.843 225.943 26.9968V39.071C225.943 39.4054 225.776 39.5741 225.44 39.5741H223.086C222.725 39.5741 222.558 39.4069 222.558 39.071V25.798C222.558 24.9217 222.7 24.3037 222.969 23.9424C223.252 23.5811 223.792 23.4005 224.603 23.4005H227.06Z" fill="#213147"/>
</g>
<defs>
<clipPath id="clip0_2107_8968">
<rect width="247" height="63" fill="white"/>
</clipPath>
</defs>
</svg>
