<svg width="371" height="645" viewBox="0 0 371 645" fill="none" xmlns="http://www.w3.org/2000/svg">
<path d="M266.989 140.413L186.736 89.5176L100.346 139.691L184.209 189.623L266.989 140.413Z" fill="#E7D8C9"/>
<path d="M0 381.172L185.172 491.505V644.19L0 381.172Z" fill="#D83535"/>
<path d="M370.344 381.052L185.172 491.385V644.07L370.344 381.052Z" fill="#206A4B"/>
<path d="M184.449 457.454L0.721191 350.25V302.483L184.449 409.688V457.454Z" fill="#D83535"/>
<path d="M184.451 457.936L370.344 349.167V301.28L184.451 410.049V457.936Z" fill="#206A4B"/>
<path d="M182.884 381.292L35.493 294.903V247.016L182.884 333.405V381.292Z" fill="#D83535"/>
<path d="M182.885 381.773L331.72 294.542V246.655L182.885 333.886V381.773Z" fill="#206A4B"/>
<path d="M183.606 308.619L68.7007 241.481V193.594L183.606 260.732V308.619Z" fill="#D83535"/>
<path d="M183.608 308.98L300.077 241.12V193.233L183.608 261.213V308.98Z" fill="#206A4B"/>
<path d="M184.449 236.909L100.346 187.458V139.691L184.449 189.022V236.909Z" fill="#D83535"/>
<path d="M184.451 237.27L266.99 187.939V140.052L184.451 189.503V237.27Z" fill="#206A4B"/>
<path d="M23.3421 394.407L15.1604 390.075L124.41 153.888L133.314 159.062L23.3421 394.407Z" fill="#CCBFB1"/>
<path d="M84.7036 322.576V275.05L106.722 262.778L113.58 218.62L141.976 164.356L132.952 159.062L23.3407 394.527L54.6237 380.209L55.466 333.646L84.7036 322.576Z" fill="#AA9380"/>
<path d="M34.8898 388.872L66.4135 407.04L65.9323 393.324L34.4086 375.998L34.8898 388.872Z" fill="#BBAC9E"/>
<path d="M44.8764 368.899L34.8898 375.758L34.4086 375.998L65.9323 393.324L76.4 385.263L44.8764 368.899Z" fill="#E7D8C9"/>
<path d="M43.9148 369.501L75.4384 386.827L74.9572 373.231L43.4335 355.905L43.9148 369.501Z" fill="#BBAC9E"/>
<path d="M53.9013 348.806L43.9148 355.544L43.4335 355.905L74.9572 373.231L85.4249 365.169L53.9013 348.806Z" fill="#E7D8C9"/>
<path d="M53.9035 348.926L85.4272 366.252L84.9459 352.536L53.4222 335.21L53.9035 348.926Z" fill="#BBAC9E"/>
<path d="M63.89 328.111L53.9035 334.969L53.4222 335.21L84.9459 352.536L95.4137 344.474L63.89 328.111Z" fill="#E7D8C9"/>
<path d="M63.89 328.231L95.4137 345.557L94.9324 331.961L63.4087 314.635L63.89 328.231Z" fill="#BBAC9E"/>
<path d="M73.8765 307.536L63.89 314.274L63.4087 314.635L94.9324 331.961L105.4 323.779L73.8765 307.536Z" fill="#E7D8C9"/>
<path d="M72.9145 308.018L104.438 325.344L103.957 311.748L72.4332 294.422L72.9145 308.018Z" fill="#BBAC9E"/>
<path d="M82.901 287.323L72.9145 294.061L72.4332 294.422L103.957 311.748L114.425 303.566L82.901 287.323Z" fill="#E7D8C9"/>
<path d="M81.9378 286.962L113.462 304.288L112.98 290.692L81.4565 273.366L81.9378 286.962Z" fill="#BBAC9E"/>
<path d="M91.9243 266.267L81.9378 273.005L81.4565 273.366L112.98 290.692L123.448 282.51L91.9243 266.267Z" fill="#E7D8C9"/>
<path d="M91.9233 266.026L123.447 283.352L122.966 269.636L91.442 252.43L91.9233 266.026Z" fill="#BBAC9E"/>
<path d="M101.91 245.211L91.803 252.069L91.442 252.43L122.966 269.636L133.313 261.574L101.91 245.211Z" fill="#E7D8C9"/>
<path d="M101.911 245.211L133.435 262.537L132.833 248.941L101.43 231.615L101.911 245.211Z" fill="#BBAC9E"/>
<path d="M111.897 224.516L101.911 231.254L101.43 231.615L132.833 248.941L143.421 240.759L111.897 224.516Z" fill="#E7D8C9"/>
<path d="M111.894 224.516L143.418 241.842L142.937 228.126L111.413 210.92L111.894 224.516Z" fill="#BBAC9E"/>
<path d="M121.881 203.821L111.774 210.559L111.413 210.92L142.937 228.126L153.284 220.064L121.881 203.821Z" fill="#E7D8C9"/>
<path d="M120.92 204.423L152.443 221.749L151.962 208.153L120.438 190.827L120.92 204.423Z" fill="#BBAC9E"/>
<path d="M130.906 183.728L120.92 190.466L120.438 190.827L151.962 208.153L162.43 199.971L130.906 183.728Z" fill="#E7D8C9"/>
<path d="M129.944 184.57L161.468 201.896L160.987 188.18L129.463 170.854L129.944 184.57Z" fill="#BBAC9E"/>
<path d="M139.931 162.912L129.944 170.613L129.463 170.853L160.987 188.179L171.454 180.118L139.931 162.912Z" fill="#E7D8C9"/>
<path d="M64.7306 419.674L56.6692 415.222L162.791 175.185L170.973 180.359L64.7306 419.674Z" fill="#CCBFB1"/>
<path d="M126.096 347.844V300.197L148.114 287.924V239.917L170.494 229.088V180.359L64.8533 419.674L96.016 405.477L96.8582 358.793L126.096 347.844Z" fill="#AA9380"/>
<path d="M343.753 396.453L351.935 392.001L241.843 155.092L232.939 160.266L343.753 396.453Z" fill="#CCBFB1"/>
<path d="M282.39 324.622V276.975L260.371 264.703L253.513 220.666L223.554 165.56L233.42 160.266L343.753 396.453L312.47 382.255L311.627 335.691L282.39 324.622Z" fill="#AA9380"/>
<path d="M332.204 390.918L300.68 408.966L301.162 395.249L332.685 378.043L332.204 390.918Z" fill="#BBAC9E"/>
<path d="M322.216 370.945L332.202 377.683L332.684 378.044L301.16 395.249L290.692 387.188L322.216 370.945Z" fill="#E7D8C9"/>
<path d="M323.178 371.546L291.654 388.872L292.135 375.156L323.659 357.95L323.178 371.546Z" fill="#BBAC9E"/>
<path d="M313.191 350.731L323.177 357.589L323.659 357.95L292.135 375.156L281.667 367.095L313.191 350.731Z" fill="#E7D8C9"/>
<path d="M313.191 350.851L281.667 368.177L282.149 354.581L313.672 337.255L313.191 350.851Z" fill="#BBAC9E"/>
<path d="M303.204 330.156L313.191 336.894L313.672 337.255L282.148 354.581L271.681 346.4L303.204 330.156Z" fill="#E7D8C9"/>
<path d="M303.204 330.277L271.681 347.603L272.162 333.886L303.686 316.56L303.204 330.277Z" fill="#BBAC9E"/>
<path d="M293.219 309.461L303.206 316.32L303.687 316.56L272.163 333.886L261.696 325.825L293.219 309.461Z" fill="#E7D8C9"/>
<path d="M294.179 310.063L262.656 327.389L263.137 313.673L294.661 296.467L294.179 310.063Z" fill="#BBAC9E"/>
<path d="M284.194 289.248L294.181 296.106L294.662 296.467L263.139 313.673L252.671 305.611L284.194 289.248Z" fill="#E7D8C9"/>
<path d="M285.157 289.007L253.633 306.333L254.115 292.617L285.638 275.291L285.157 289.007Z" fill="#BBAC9E"/>
<path d="M275.171 268.192L285.157 275.05L285.639 275.291L254.115 292.617L243.768 284.555L275.171 268.192Z" fill="#E7D8C9"/>
<path d="M275.169 267.951L243.646 285.277L244.127 271.681L275.651 254.355L275.169 267.951Z" fill="#BBAC9E"/>
<path d="M265.184 247.256L275.291 253.994L275.652 254.355L244.128 271.681L233.781 263.499L265.184 247.256Z" fill="#E7D8C9"/>
<path d="M265.184 247.256L233.661 264.582L234.142 250.866L265.666 233.54L265.184 247.256Z" fill="#BBAC9E"/>
<path d="M255.198 226.441L265.185 233.299L265.666 233.54L234.143 250.866L223.795 242.805L255.198 226.441Z" fill="#E7D8C9"/>
<path d="M255.198 226.441L223.674 243.767L224.276 230.171L255.679 212.845L255.198 226.441Z" fill="#BBAC9E"/>
<path d="M245.212 205.746L255.198 212.484L255.68 212.845L224.276 230.171L213.808 221.989L245.212 205.746Z" fill="#E7D8C9"/>
<path d="M246.173 206.468L214.649 223.794L215.131 210.078L246.654 192.752L246.173 206.468Z" fill="#BBAC9E"/>
<path d="M236.186 185.653L246.173 192.511L246.654 192.752L215.131 210.078L204.663 202.016L236.186 185.653Z" fill="#E7D8C9"/>
<path d="M237.15 186.495L205.626 203.821L206.107 190.225L237.631 172.899L237.15 186.495Z" fill="#BBAC9E"/>
<path d="M224.876 164.958L237.149 172.538L237.63 172.899L206.106 190.225L195.638 182.043L224.876 164.958Z" fill="#E7D8C9"/>
<path d="M302.363 421.599L310.425 417.147L204.303 177.23L196.121 182.404L302.363 421.599Z" fill="#CCBFB1"/>
<path d="M241 349.769V302.122L218.981 289.849V241.962L196.602 231.134V182.284L302.243 421.72L271.08 407.402L270.238 360.838L241 349.769Z" fill="#AA9380"/>
<path d="M153.528 148.956L165.921 156.776L167.365 138.849L159.665 129.584L152.806 128.862V148.354L153.528 148.956Z" fill="#493B2E"/>
<path d="M204.421 155.092L216.694 147.03L216.814 121.162L199.007 138.127L202.135 153.528L204.421 155.092Z" fill="#493B2E"/>
<path d="M136.924 101.67V138.126L153.528 148.715V131.629L163.875 138.247V155.332L183.728 168.086V131.629L136.924 101.67Z" fill="#C5B8AA"/>
<path d="M183.729 131.629V168.086L204.063 155.091V138.247L214.41 131.629V148.474L230.533 138.126V101.67L183.729 131.629Z" fill="#BBAC9E"/>
<path d="M234.381 97.218L183.727 64.9724L133.073 97.218L183.727 129.584L234.381 97.218Z" fill="#E7D8C9"/>
<path d="M183.727 140.051L133.073 107.686V97.2178L183.727 129.584V140.051Z" fill="#BBAC9E"/>
<path d="M234.38 107.686L183.726 140.051V129.584L234.38 97.2178V107.686Z" fill="#C5B8AA"/>
<path d="M184.571 0L231.495 81.8172L184.571 109.37V0Z" fill="#206A4B"/>
<path d="M184.569 0.240723L137.645 82.0579L184.569 109.611V0.240723Z" fill="#D83535"/>
</svg>
