<svg width="104" height="104" viewBox="0 0 104 104" fill="none" xmlns="http://www.w3.org/2000/svg">
<path d="M23.7007 41.2994L10.7007 28.2994C10.3986 27.9975 10.1588 27.6391 9.9953 27.2445C9.83174 26.85 9.74756 26.4271 9.74756 26C9.74756 25.5729 9.83174 25.15 9.9953 24.7554C10.1588 24.3609 10.3986 24.0024 10.7007 23.7006L23.7007 10.7006C24.3106 10.0908 25.1377 9.74817 26.0001 9.74817C26.8625 9.74817 27.6897 10.0908 28.2995 10.7006C28.9093 11.3104 29.2519 12.1375 29.2519 13C29.2519 13.8624 28.9093 14.6895 28.2995 15.2994L17.5948 26L28.2995 36.7006C28.9093 37.3104 29.2519 38.1375 29.2519 39C29.2519 39.8624 28.9093 40.6895 28.2995 41.2993C27.6897 41.9092 26.8625 42.2518 26.0001 42.2518C25.1377 42.2518 24.3106 41.9092 23.7007 41.2994ZM39.9507 41.2994C40.2526 41.6015 40.611 41.8412 41.0056 42.0048C41.4001 42.1684 41.823 42.2525 42.2501 42.2525C42.6772 42.2525 43.1001 42.1684 43.4947 42.0048C43.8892 41.8412 44.2477 41.6015 44.5495 41.2994L57.5495 28.2994C57.8517 27.9975 58.0914 27.6391 58.2549 27.2445C58.4185 26.85 58.5027 26.4271 58.5027 26C58.5027 25.5729 58.4185 25.15 58.2549 24.7554C58.0914 24.3609 57.8517 24.0024 57.5495 23.7006L44.5495 10.7006C43.9397 10.0908 43.1125 9.74817 42.2501 9.74817C41.3877 9.74817 40.5606 10.0908 39.9507 10.7006C39.3409 11.3104 38.9983 12.1375 38.9983 13C38.9983 13.8624 39.3409 14.6895 39.9507 15.2994L50.6554 26L39.9507 36.7006C39.6486 37.0024 39.4089 37.3609 39.2453 37.7554C39.0817 38.15 38.9976 38.5729 38.9976 39C38.9976 39.4271 39.0817 39.85 39.2453 40.2445C39.4089 40.6391 39.6486 40.9975 39.9507 41.2994ZM81.2501 16.25H71.5001C70.6382 16.25 69.8115 16.5924 69.202 17.2019C68.5925 17.8114 68.2501 18.638 68.2501 19.5C68.2501 20.3619 68.5925 21.1886 69.202 21.7981C69.8115 22.4076 70.6382 22.75 71.5001 22.75H81.2501V81.25H22.7501V55.25C22.7501 54.388 22.4077 53.5614 21.7982 52.9519C21.1887 52.3424 20.3621 52 19.5001 52C18.6382 52 17.8115 52.3424 17.202 52.9519C16.5925 53.5614 16.2501 54.388 16.2501 55.25V81.25C16.2501 82.9739 16.9349 84.6272 18.1539 85.8462C19.3729 87.0652 21.0262 87.75 22.7501 87.75H81.2501C82.974 87.75 84.6273 87.0652 85.8463 85.8462C87.0653 84.6272 87.7501 82.9739 87.7501 81.25V22.75C87.7501 21.0261 87.0653 19.3728 85.8463 18.1538C84.6273 16.9348 82.974 16.25 81.2501 16.25Z" fill="#FF4C52"/>
</svg>
