<svg width="104" height="104" viewBox="0 0 104 104" fill="none" xmlns="http://www.w3.org/2000/svg">
<path d="M103.309 43.8385L92.9418 23.0953C92.5599 22.3318 92.0313 21.6511 91.3863 21.0919C90.7412 20.5327 89.9923 20.1061 89.1824 19.8363C88.3724 19.5666 87.5173 19.4591 86.6658 19.5199C85.8142 19.5807 84.983 19.8086 84.2196 20.1906L74.1162 25.2403L52.8328 19.6097C52.2866 19.4676 51.7132 19.4676 51.1671 19.6097L29.8837 25.2403L19.7803 20.1906C19.0168 19.8086 18.1856 19.5807 17.3341 19.5199C16.4826 19.4591 15.6275 19.5666 14.8175 19.8363C14.0076 20.1061 13.2587 20.5327 12.6136 21.0919C11.9686 21.6511 11.44 22.3318 11.0581 23.0953L0.690569 43.8344C0.308516 44.5978 0.0805861 45.429 0.0197968 46.2805C-0.0409925 47.132 0.0665493 47.9872 0.336281 48.7971C0.606012 49.6071 1.03265 50.356 1.59183 51.001C2.15101 51.6461 2.83178 52.1746 3.59526 52.5566L14.564 58.045L37.1068 74.1447C37.439 74.381 37.8124 74.5533 38.2078 74.6525L64.2078 81.1525C64.7523 81.2891 65.3228 81.2823 65.8639 81.1327C66.405 80.9832 66.8981 80.6961 67.2952 80.2994L89.6674 57.9231L100.401 52.5566C101.941 51.7852 103.113 50.4336 103.658 48.7988C104.202 47.164 104.076 45.3798 103.305 43.8385H103.309ZM81.0103 57.395L67.0312 46.1988C66.4049 45.6972 65.6153 45.4451 64.8143 45.4908C64.0133 45.5366 63.2575 45.877 62.6924 46.4466C55.4571 53.7347 47.3931 52.8125 42.2499 49.5625L59.8162 32.5H72.739L83.7931 54.6041L81.0103 57.395ZM16.8715 26L25.1874 30.1519L14.7996 50.8909L6.49994 46.7431L16.8715 26ZM63.9965 74.3966L40.3893 68.4978L20.4018 54.2222L31.7768 31.4722L51.9999 26.1138L55.9812 27.166L37.6999 44.911L37.6674 44.9475C36.9793 45.6357 36.4544 46.4696 36.1316 47.3877C35.8088 48.3058 35.6963 49.2847 35.8023 50.2521C35.9084 51.2195 36.2303 52.1508 36.7444 52.9771C37.2585 53.8035 37.9515 54.5039 38.7724 55.0266C47.1249 60.3606 57.204 59.4953 65.1421 52.9953L76.3749 62.0181L63.9965 74.3966ZM89.184 50.8869L78.8165 30.1681L87.1284 26L97.4999 46.7431L89.184 50.8869ZM53.5356 88.5341C53.36 89.2365 52.9549 89.8602 52.3845 90.3062C51.8141 90.7522 51.1112 90.9949 50.3871 90.996C50.1201 90.9956 49.8541 90.9629 49.5949 90.8985L32.6665 86.6653C32.2706 86.5676 31.8969 86.3953 31.5656 86.1575L20.8609 78.5119C20.2027 77.9951 19.7692 77.2443 19.6507 76.4159C19.5322 75.5875 19.7378 74.7453 20.2247 74.0647C20.7116 73.3841 21.4422 72.9175 22.2645 72.7622C23.0868 72.6068 23.9373 72.7746 24.639 73.2306L34.8399 80.5188L51.1874 84.5975C52.0235 84.8067 52.7422 85.3393 53.1856 86.0783C53.629 86.8172 53.7607 87.7021 53.5518 88.5381L53.5356 88.5341Z" fill="#FF4C52"/>
</svg>
