<svg width="701" height="647" viewBox="0 0 701 647" fill="none" xmlns="http://www.w3.org/2000/svg">
<path d="M433.989 140.413L353.736 89.5176L267.346 139.691L351.209 189.623L433.989 140.413Z" fill="#E7D8C9"/>
<path d="M167 381.172L352.172 491.505V644.19L167 381.172Z" fill="#D83535"/>
<path d="M537.344 381.052L352.172 491.385V644.07L537.344 381.052Z" fill="#206A4B"/>
<path d="M351.449 457.454L167.721 350.25V302.483L351.449 409.688V457.454Z" fill="#D83535"/>
<path d="M351.451 457.936L537.344 349.167V301.28L351.451 410.049V457.936Z" fill="#206A4B"/>
<path d="M349.884 381.292L202.493 294.903V247.016L349.884 333.405V381.292Z" fill="#D83535"/>
<path d="M349.885 381.773L498.72 294.542V246.655L349.885 333.886V381.773Z" fill="#206A4B"/>
<path d="M350.606 308.619L235.701 241.481V193.594L350.606 260.732V308.619Z" fill="#D83535"/>
<path d="M350.608 308.98L467.077 241.12V193.233L350.608 261.213V308.98Z" fill="#206A4B"/>
<path d="M351.449 236.909L267.346 187.458V139.691L351.449 189.022V236.909Z" fill="#D83535"/>
<path d="M351.451 237.27L433.99 187.939V140.052L351.451 189.503V237.27Z" fill="#206A4B"/>
<path d="M190.342 394.407L182.16 390.075L291.41 153.888L300.314 159.062L190.342 394.407Z" fill="#CCBFB1"/>
<path d="M251.704 322.576V275.05L273.722 262.778L280.58 218.62L308.976 164.356L299.952 159.062L190.341 394.527L221.624 380.209L222.466 333.646L251.704 322.576Z" fill="#AA9380"/>
<path d="M201.89 388.872L233.413 407.04L232.932 393.324L201.408 375.998L201.89 388.872Z" fill="#BBAC9E"/>
<path d="M211.876 368.899L201.89 375.758L201.408 375.998L232.932 393.324L243.4 385.263L211.876 368.899Z" fill="#E7D8C9"/>
<path d="M210.915 369.501L242.439 386.827L241.957 373.231L210.434 355.905L210.915 369.501Z" fill="#BBAC9E"/>
<path d="M220.901 348.806L210.915 355.544L210.434 355.905L241.957 373.231L252.425 365.169L220.901 348.806Z" fill="#E7D8C9"/>
<path d="M220.903 348.926L252.427 366.252L251.946 352.536L220.422 335.21L220.903 348.926Z" fill="#BBAC9E"/>
<path d="M230.89 328.111L220.903 334.969L220.422 335.21L251.946 352.536L262.414 344.474L230.89 328.111Z" fill="#E7D8C9"/>
<path d="M230.89 328.231L262.414 345.557L261.932 331.961L230.409 314.635L230.89 328.231Z" fill="#BBAC9E"/>
<path d="M240.876 307.536L230.89 314.274L230.409 314.635L261.932 331.961L272.4 323.779L240.876 307.536Z" fill="#E7D8C9"/>
<path d="M239.914 308.018L271.438 325.344L270.957 311.748L239.433 294.422L239.914 308.018Z" fill="#BBAC9E"/>
<path d="M249.901 287.323L239.914 294.061L239.433 294.422L270.957 311.748L281.425 303.566L249.901 287.323Z" fill="#E7D8C9"/>
<path d="M248.938 286.962L280.462 304.288L279.98 290.692L248.457 273.366L248.938 286.962Z" fill="#BBAC9E"/>
<path d="M258.924 266.267L248.938 273.005L248.457 273.366L279.98 290.692L290.448 282.51L258.924 266.267Z" fill="#E7D8C9"/>
<path d="M258.923 266.026L290.447 283.352L289.966 269.636L258.442 252.43L258.923 266.026Z" fill="#BBAC9E"/>
<path d="M268.91 245.211L258.803 252.069L258.442 252.43L289.966 269.636L300.313 261.574L268.91 245.211Z" fill="#E7D8C9"/>
<path d="M268.911 245.211L300.435 262.537L299.833 248.941L268.43 231.615L268.911 245.211Z" fill="#BBAC9E"/>
<path d="M278.897 224.516L268.911 231.254L268.43 231.615L299.833 248.941L310.421 240.759L278.897 224.516Z" fill="#E7D8C9"/>
<path d="M278.894 224.516L310.418 241.842L309.937 228.126L278.413 210.92L278.894 224.516Z" fill="#BBAC9E"/>
<path d="M288.881 203.821L278.774 210.559L278.413 210.92L309.937 228.126L320.284 220.064L288.881 203.821Z" fill="#E7D8C9"/>
<path d="M287.92 204.423L319.443 221.749L318.962 208.153L287.438 190.827L287.92 204.423Z" fill="#BBAC9E"/>
<path d="M297.906 183.728L287.92 190.466L287.438 190.827L318.962 208.153L329.43 199.971L297.906 183.728Z" fill="#E7D8C9"/>
<path d="M296.944 184.57L328.468 201.896L327.987 188.18L296.463 170.854L296.944 184.57Z" fill="#BBAC9E"/>
<path d="M306.931 162.912L296.944 170.613L296.463 170.853L327.987 188.179L338.454 180.118L306.931 162.912Z" fill="#E7D8C9"/>
<path d="M231.731 419.674L223.669 415.222L329.791 175.185L337.973 180.359L231.731 419.674Z" fill="#CCBFB1"/>
<path d="M293.096 347.844V300.197L315.114 287.924V239.917L337.494 229.088V180.359L231.853 419.674L263.016 405.477L263.858 358.793L293.096 347.844Z" fill="#AA9380"/>
<path d="M510.753 396.453L518.935 392.001L408.843 155.092L399.939 160.266L510.753 396.453Z" fill="#CCBFB1"/>
<path d="M449.39 324.622V276.975L427.371 264.703L420.513 220.666L390.553 165.56L400.42 160.266L510.753 396.453L479.47 382.255L478.627 335.691L449.39 324.622Z" fill="#AA9380"/>
<path d="M499.204 390.918L467.68 408.966L468.162 395.249L499.685 378.043L499.204 390.918Z" fill="#BBAC9E"/>
<path d="M489.216 370.945L499.202 377.683L499.684 378.044L468.16 395.249L457.692 387.188L489.216 370.945Z" fill="#E7D8C9"/>
<path d="M490.178 371.546L458.654 388.872L459.135 375.156L490.659 357.95L490.178 371.546Z" fill="#BBAC9E"/>
<path d="M480.191 350.731L490.177 357.589L490.659 357.95L459.135 375.156L448.667 367.095L480.191 350.731Z" fill="#E7D8C9"/>
<path d="M480.191 350.851L448.667 368.177L449.149 354.581L480.672 337.255L480.191 350.851Z" fill="#BBAC9E"/>
<path d="M470.204 330.156L480.191 336.894L480.672 337.255L449.148 354.581L438.681 346.4L470.204 330.156Z" fill="#E7D8C9"/>
<path d="M470.204 330.277L438.681 347.603L439.162 333.886L470.686 316.56L470.204 330.277Z" fill="#BBAC9E"/>
<path d="M460.219 309.461L470.206 316.32L470.687 316.56L439.164 333.886L428.696 325.825L460.219 309.461Z" fill="#E7D8C9"/>
<path d="M461.179 310.063L429.656 327.389L430.137 313.673L461.661 296.467L461.179 310.063Z" fill="#BBAC9E"/>
<path d="M451.194 289.248L461.181 296.106L461.662 296.467L430.138 313.673L419.671 305.611L451.194 289.248Z" fill="#E7D8C9"/>
<path d="M452.157 289.007L420.633 306.333L421.115 292.617L452.638 275.291L452.157 289.007Z" fill="#BBAC9E"/>
<path d="M442.171 268.192L452.157 275.05L452.639 275.291L421.115 292.617L410.768 284.555L442.171 268.192Z" fill="#E7D8C9"/>
<path d="M442.169 267.951L410.646 285.277L411.127 271.681L442.651 254.355L442.169 267.951Z" fill="#BBAC9E"/>
<path d="M432.184 247.256L442.291 253.994L442.652 254.355L411.128 271.681L400.781 263.499L432.184 247.256Z" fill="#E7D8C9"/>
<path d="M432.185 247.256L400.661 264.582L401.142 250.866L432.666 233.54L432.185 247.256Z" fill="#BBAC9E"/>
<path d="M422.198 226.441L432.185 233.299L432.666 233.54L401.142 250.866L390.795 242.805L422.198 226.441Z" fill="#E7D8C9"/>
<path d="M422.198 226.441L390.674 243.767L391.276 230.171L422.679 212.845L422.198 226.441Z" fill="#BBAC9E"/>
<path d="M412.212 205.746L422.198 212.484L422.68 212.845L391.276 230.171L380.808 221.989L412.212 205.746Z" fill="#E7D8C9"/>
<path d="M413.173 206.468L381.649 223.794L382.131 210.078L413.654 192.752L413.173 206.468Z" fill="#BBAC9E"/>
<path d="M403.187 185.653L413.173 192.511L413.654 192.752L382.131 210.078L371.663 202.016L403.187 185.653Z" fill="#E7D8C9"/>
<path d="M404.15 186.495L372.626 203.821L373.107 190.225L404.631 172.899L404.15 186.495Z" fill="#BBAC9E"/>
<path d="M391.876 164.958L404.149 172.538L404.63 172.899L373.106 190.225L362.638 182.043L391.876 164.958Z" fill="#E7D8C9"/>
<path d="M469.363 421.599L477.425 417.147L371.303 177.23L363.121 182.404L469.363 421.599Z" fill="#CCBFB1"/>
<path d="M408 349.769V302.122L385.981 289.849V241.962L363.602 231.134V182.284L469.243 421.72L438.08 407.402L437.238 360.838L408 349.769Z" fill="#AA9380"/>
<path d="M320.528 148.956L332.921 156.776L334.365 138.849L326.665 129.584L319.806 128.862V148.354L320.528 148.956Z" fill="#493B2E"/>
<path d="M371.421 155.092L383.694 147.03L383.814 121.162L366.007 138.127L369.135 153.528L371.421 155.092Z" fill="#493B2E"/>
<path d="M303.924 101.67V138.126L320.528 148.715V131.629L330.875 138.247V155.332L350.728 168.086V131.629L303.924 101.67Z" fill="#C5B8AA"/>
<path d="M350.729 131.629V168.086L371.063 155.091V138.247L381.41 131.629V148.474L397.533 138.126V101.67L350.729 131.629Z" fill="#BBAC9E"/>
<path d="M401.381 97.218L350.727 64.9724L300.073 97.218L350.727 129.584L401.381 97.218Z" fill="#E7D8C9"/>
<path d="M350.727 140.051L300.073 107.686V97.2178L350.727 129.584V140.051Z" fill="#BBAC9E"/>
<path d="M401.381 107.686L350.726 140.051V129.584L401.381 97.2178V107.686Z" fill="#C5B8AA"/>
<path d="M351.571 0L398.495 81.8172L351.571 109.37V0Z" fill="#206A4B"/>
<path d="M351.569 0.240723L304.645 82.0579L351.569 109.611V0.240723Z" fill="#D83535"/>
</svg>
