<svg width="100" height="55" viewBox="0 0 100 55" fill="none" xmlns="http://www.w3.org/2000/svg">
<g clip-path="url(#clip0_2350_30)">
<path d="M39.4177 26.5477V16.4404H46.8856V18.2056H41.4834V20.3676H46.4569V22.147H41.4834V24.7499H47.1298V26.5456L39.4177 26.5477Z" fill="#3A3A3A"/>
<path d="M51.7975 21.6154H53.6437V23.7469C53.6456 24.132 53.5861 24.5149 53.4673 24.8815C53.3534 25.2361 53.1657 25.5628 52.9165 25.8406C52.6537 26.1287 52.3296 26.355 51.9678 26.5027C51.5324 26.6745 51.0667 26.7571 50.5985 26.7456C50.1175 26.7583 49.6389 26.6757 49.1903 26.5027C48.827 26.3571 48.5006 26.1334 48.2343 25.8477C47.9837 25.5722 47.798 25.2445 47.6907 24.8886C47.5773 24.5133 47.5206 24.1234 47.5225 23.7316V17.0332H49.4815V19.0585H53.6437V20.4584H49.4867V23.5336C49.4867 24.0098 49.5759 24.3778 49.7544 24.6376C49.9328 24.8974 50.2262 25.0267 50.6344 25.0253C51.0324 25.0253 51.3257 24.8985 51.5144 24.6447C51.7031 24.391 51.7975 24.0309 51.7975 23.5642V21.6154Z" fill="#3A3A3A"/>
<path d="M59.1885 26.5475V21.9051C59.1885 21.3365 59.089 20.9481 58.89 20.7399C58.691 20.5318 58.3621 20.4297 57.9033 20.4338C57.6755 20.43 57.45 20.4792 57.2448 20.5777C57.0543 20.6719 56.8872 20.8072 56.7556 20.9736C56.6198 21.1456 56.5185 21.342 56.4571 21.5521C56.3879 21.7818 56.3533 22.0204 56.3545 22.2602V26.5526H54.3647V16.3179H56.3545V20.0328C56.4336 19.8589 56.5449 19.7014 56.6828 19.5686C56.8341 19.4195 57.007 19.2936 57.1956 19.1952C57.4 19.09 57.6158 19.0081 57.8387 18.9513C58.0786 18.8903 58.3254 18.8597 58.5731 18.8605C59.3485 18.8605 59.9786 19.071 60.4634 19.4921C60.9482 19.9131 61.1903 20.4991 61.1896 21.2501V26.5475H59.1885Z" fill="#3A3A3A"/>
<path d="M63.8102 23.3202C63.8396 23.8896 64.0051 24.3412 64.3067 24.6752C64.4552 24.8406 64.6385 24.9714 64.8436 25.0584C65.0487 25.1453 65.2706 25.1862 65.4934 25.1782C65.7965 25.1844 66.0955 25.1078 66.358 24.9568C66.4754 24.8919 66.5785 24.8043 66.6613 24.6992C66.744 24.5941 66.8049 24.4735 66.8401 24.3446H68.8914C68.6569 25.116 68.2487 25.7098 67.6668 26.1261C67.0849 26.5424 66.3912 26.7502 65.5857 26.7495C63.0755 26.7495 61.8208 25.3891 61.8215 22.6683C61.8144 22.1356 61.8972 21.6054 62.0666 21.1C62.2174 20.6545 62.4594 20.2449 62.7774 19.8971C63.0943 19.5585 63.4843 19.2959 63.9179 19.1288C64.4115 18.9434 64.9361 18.853 65.4636 18.8625C66.6261 18.8625 67.5061 19.2329 68.1037 19.9736C68.7013 20.7144 68.9995 21.8306 68.9981 23.3223L63.8102 23.3202ZM66.9467 22.0724C66.9421 21.8245 66.8928 21.5795 66.8011 21.349C66.7237 21.1548 66.6067 20.9787 66.4575 20.8317C66.3179 20.6961 66.1507 20.5917 65.9672 20.5256C65.786 20.4587 65.5944 20.4241 65.4011 20.4236C65.2082 20.4218 65.0171 20.4593 64.8395 20.5339C64.6618 20.6085 64.5014 20.7185 64.3682 20.8572C64.0783 21.1456 63.9125 21.549 63.8708 22.0673L66.9467 22.0724Z" fill="#3A3A3A"/>
<path d="M69.6094 26.5476V19.0585H71.4761V19.9564C71.6139 19.7324 71.7871 19.5319 71.9889 19.3626C72.1558 19.2277 72.3413 19.1174 72.5397 19.0351C72.7235 18.9608 72.9169 18.9124 73.1141 18.8912C73.3124 18.8705 73.5117 18.8603 73.711 18.8606H73.9705V20.8849C73.7885 20.8544 73.6043 20.8391 73.4197 20.839C72.2053 20.839 71.5985 21.443 71.5992 22.6511V26.5476H69.6094Z" fill="#3A3A3A"/>
<path d="M75.8528 23.3203C75.8835 23.8896 76.0494 24.3413 76.3502 24.6752C76.4985 24.8407 76.6816 24.9715 76.8866 25.0584C77.0915 25.1454 77.3132 25.1863 77.5359 25.1783C77.8391 25.1847 78.1382 25.1081 78.4005 24.9568C78.5181 24.8923 78.6214 24.8048 78.7043 24.6996C78.7871 24.5944 78.8477 24.4737 78.8826 24.3447H80.9339C80.6994 25.116 80.2912 25.7098 79.7093 26.1261C79.1274 26.5424 78.4337 26.7502 77.6282 26.7495C75.118 26.7495 73.8633 25.3891 73.864 22.6683C73.8565 22.1356 73.9391 21.6055 74.1081 21.1001C74.2593 20.6544 74.5016 20.2448 74.8199 19.8971C75.1368 19.5586 75.5268 19.2959 75.9605 19.1288C76.454 18.9433 76.9786 18.8529 77.5062 18.8625C78.6686 18.8625 79.5483 19.2329 80.1452 19.9736C80.7421 20.7144 81.0406 21.8306 81.0406 23.3223L75.8528 23.3203ZM78.9903 22.0724C78.9857 21.8246 78.9363 21.5795 78.8447 21.349C78.7669 21.1547 78.6496 20.9786 78.5 20.8317C78.3609 20.6959 78.1941 20.5915 78.0108 20.5256C77.8296 20.4587 77.6379 20.4242 77.4446 20.4236C77.2518 20.4217 77.0606 20.4592 76.8829 20.5338C76.7053 20.6083 76.5449 20.7184 76.4118 20.8572C76.1205 21.1456 75.9546 21.549 75.9143 22.0673L78.9903 22.0724Z" fill="#3A3A3A"/>
<path d="M86.5494 26.5475V25.4976C86.04 26.3301 85.2595 26.7461 84.2078 26.7454C83.8536 26.7497 83.5022 26.6823 83.175 26.5475C82.8695 26.4196 82.5956 26.2274 82.3719 25.9842C82.1417 25.7314 81.9623 25.437 81.8436 25.117C81.7124 24.7574 81.6477 24.3771 81.6529 23.9946V19.0583H83.6417V23.6855C83.6417 24.6201 84.0653 25.087 84.9125 25.0864C85.4219 25.0864 85.8068 24.9265 86.0674 24.6068C86.3279 24.2871 86.4581 23.879 86.4581 23.3824V19.0583H88.4315V26.5475H86.5494Z" fill="#3A3A3A"/>
<path d="M98.0574 26.5474V22.0111C98.0574 21.5547 97.9504 21.1843 97.7364 20.9C97.6392 20.7648 97.5103 20.6553 97.3608 20.581C97.2114 20.5066 97.0459 20.4698 96.8789 20.4735C96.7014 20.4719 96.5262 20.5125 96.3677 20.592C96.2092 20.6715 96.0722 20.7876 95.9681 20.9306C95.7205 21.259 95.5938 21.6621 95.6091 22.0723V26.5474H93.6214V22.0448C93.6261 21.7948 93.6055 21.5449 93.5598 21.2989C93.5314 21.1318 93.4608 20.9745 93.3547 20.8418C93.2551 20.7289 93.1247 20.647 92.9793 20.6062C92.8 20.557 92.6145 20.534 92.4285 20.5378C91.6223 20.5378 91.2196 21.0248 91.2203 21.9989V26.5505H89.2305V19.0614H91.0972V20.1572C91.3529 19.66 91.6589 19.3199 92.0152 19.1369C92.4158 18.9448 92.8568 18.851 93.3014 18.8635C93.5299 18.861 93.758 18.8815 93.9824 18.9247C94.1715 18.9609 94.3528 19.03 94.5178 19.1287C94.6843 19.2322 94.8361 19.3575 94.9691 19.5012C95.1262 19.6727 95.2695 19.8563 95.3978 20.0501C95.5672 19.6717 95.8508 19.355 96.2091 19.144C96.5858 18.9467 97.0073 18.8497 97.4328 18.8624C97.7888 18.8585 98.1423 18.923 98.4738 19.0522C98.7784 19.1719 99.0544 19.3537 99.2841 19.5858C99.7478 20.0605 100.006 20.6973 100.002 21.3591V26.5495L98.0574 26.5474Z" fill="#3A3A3A"/>
<path d="M47.2826 40.3218V33.3959L45.3851 40.3218H43.2743L41.3911 33.4265V40.3218H39.4177V30.2146H42.5429L44.3799 37.6282L46.2159 30.2146H49.2765V40.3218H47.2826Z" fill="#3A3A3A"/>
<path d="M51.8427 37.0945C51.8734 37.6638 52.0393 38.1155 52.3401 38.4495C52.4887 38.6148 52.672 38.7457 52.8771 38.8326C53.0822 38.9195 53.304 38.9605 53.5268 38.9525C53.83 38.9586 54.129 38.8821 54.3915 38.7311C54.5088 38.6663 54.6119 38.5787 54.6945 38.4736C54.7771 38.3684 54.8377 38.2478 54.8725 38.1189H56.9239C56.6886 38.8902 56.2804 39.4841 55.6992 39.9003C55.118 40.3166 54.425 40.5231 53.6202 40.5197C51.11 40.5197 49.8553 39.1593 49.8559 36.4384C49.8483 35.9057 49.9312 35.3755 50.1011 34.8702C50.2519 34.4247 50.4939 34.015 50.8119 33.6672C51.1288 33.3287 51.5188 33.066 51.9524 32.899C52.446 32.7134 52.9706 32.6231 53.4981 32.6327C54.6605 32.6327 55.5406 33.003 56.1382 33.7438C56.7358 34.4845 57.034 35.6007 57.0326 37.0924L51.8427 37.0945ZM54.9802 35.8466C54.9756 35.5988 54.9262 35.3538 54.8346 35.1232C54.7575 34.9289 54.6404 34.7527 54.491 34.6059C54.3513 34.4703 54.1842 34.366 54.0007 34.2998C53.8195 34.2329 53.6278 34.1984 53.4345 34.1978C53.2417 34.196 53.0506 34.2336 52.8729 34.3081C52.6953 34.3827 52.5349 34.4928 52.4017 34.6314C52.1111 34.9205 51.9452 35.3239 51.9042 35.8415L54.9802 35.8466ZM52.4242 31.8888L51.9504 31.0512L55.1176 29.2146L55.8356 30.4624L52.4242 31.8888Z" fill="#3A3A3A"/>
<path d="M61.6061 40.3219L60.287 38.069L59.005 40.3219H56.6172L59.1424 36.5008L56.6972 32.8328H59.0993L60.3701 35.0091L61.6553 32.8328H63.9661L61.4717 36.5008L64.0431 40.3219H61.6061Z" fill="#3A3A3A"/>
<path d="M64.5293 31.9337V30.0972H66.5181V31.9337H64.5293ZM64.5293 40.3217V32.8326H66.5181V40.3217H64.5293Z" fill="#3A3A3A"/>
<path d="M74.1388 37.6128C74.0946 38.0291 73.9673 38.4326 73.7644 38.7994C73.5716 39.1499 73.3145 39.4614 73.0065 39.7177C72.6942 39.9737 72.3395 40.1736 71.9582 40.3084C71.5482 40.4539 71.1155 40.5261 70.6802 40.5217C70.2018 40.5274 69.7266 40.4422 69.2802 40.2707C68.8595 40.106 68.4841 39.8445 68.1848 39.5075C67.8625 39.1398 67.6201 38.7097 67.473 38.2444C67.2949 37.6755 67.2097 37.082 67.2206 36.4864C67.2084 35.8983 67.2936 35.3123 67.473 34.7518C67.6165 34.3046 67.8598 33.8955 68.1848 33.555C68.496 33.241 68.8763 33.0032 69.2956 32.8602C70.1991 32.5662 71.1715 32.5555 72.0813 32.8296C72.4677 32.952 72.8263 33.1485 73.1367 33.4081C73.4365 33.6608 73.6791 33.9737 73.8485 34.3263C74.0275 34.6987 74.132 35.102 74.1562 35.514H72.15C72.117 35.1636 71.9499 34.8393 71.6833 34.608C71.4149 34.3869 71.0748 34.2705 70.7264 34.2804C70.5236 34.28 70.3225 34.3174 70.1335 34.3906C69.9442 34.4656 69.778 34.5888 69.6515 34.7477C69.4979 34.947 69.3863 35.175 69.3233 35.4181C69.2341 35.7532 69.1927 36.099 69.2002 36.4455C69.2002 37.2666 69.3482 37.8753 69.6443 38.2719C69.9404 38.6685 70.2823 38.8664 70.67 38.8657C71.0282 38.8753 71.3789 38.7626 71.6639 38.5464C71.8042 38.4335 71.919 38.2925 72.0009 38.1325C72.0827 37.9725 72.1297 37.7972 72.1387 37.6179L74.1388 37.6128Z" fill="#3A3A3A"/>
<path d="M78.3472 40.5196C77.7865 40.5298 77.2292 40.4317 76.7061 40.2309C76.2455 40.0537 75.8297 39.7777 75.4885 39.4225C75.1472 39.0673 74.8888 38.6417 74.7317 38.1759C74.5541 37.6616 74.4663 37.1209 74.4722 36.5771C74.4685 36.0274 74.5622 35.4813 74.7491 34.964C74.9142 34.4977 75.1775 34.0719 75.5215 33.7151C75.8651 33.3657 76.2799 33.0933 76.7379 32.9162C77.2532 32.7212 77.8011 32.6256 78.3523 32.6346C78.8962 32.626 79.4366 32.7216 79.9442 32.9162C80.4009 33.0921 80.8136 33.3651 81.1532 33.7162C81.4928 34.0672 81.7512 34.4879 81.9104 34.9487C82.0954 35.473 82.1861 36.0256 82.1781 36.5812C82.186 37.1331 82.0954 37.6821 81.9104 38.2025C81.7445 38.6643 81.4839 39.0868 81.1452 39.4432C80.8055 39.7935 80.3932 40.0661 79.937 40.2421C79.4297 40.4346 78.8901 40.5288 78.3472 40.5196ZM78.3472 38.8606C79.5616 38.8606 80.1688 38.0994 80.1688 36.5771C80.1688 35.065 79.5616 34.309 78.3472 34.309C77.1328 34.309 76.5259 35.065 76.5266 36.5771C76.5266 38.0994 77.1335 38.8606 78.3472 38.8606Z" fill="#3A3A3A"/>
<path d="M5.36735 35.5007L4.82682 35.2099L4.83707 35.1874L0 32.3193L15.7841 54.6295V54.6203V41.6756L5.36735 35.5007Z" fill="#3A3A3A"/>
<path d="M29.9477 33.2714L26.4512 35.3437L26.4666 35.3784L25.7732 35.7508L25.7722 35.7467L25.765 35.7498L25.7691 35.759L25.7588 35.7539L15.7842 41.6666V41.6758V54.6205L31.5693 32.3103L29.998 33.2418L29.999 33.2439L29.9477 33.2714Z" fill="#3A3A3A"/>
<path d="M6.38901 31.698L6.42286 31.6235L6.38696 31.6501L6.38901 31.698Z" fill="#D83535"/>
<path d="M15.7184 34.7407L8.28334 30.4207L8.2577 30.4298L8.18795 34.3805L8.14795 34.3989L15.7184 38.7964V34.7764V34.7407Z" fill="#3A3A3A"/>
<path d="M0.0656738 25.6465V29.7022L2.26779 30.9827L3.75399 27.7891L0.0656738 25.6465Z" fill="#3A3A3A"/>
<path d="M7.10281 32.0337L6.48022 33.4295L6.4833 33.4315L7.10281 32.0337Z" fill="#D83535"/>
<path d="M2.95801 31.3829L2.96108 31.3849L3.65444 29.9014L2.95801 31.3829Z" fill="#D83535"/>
<path d="M31.5691 25.5518L27.5105 27.9138L28.9998 31.1033L31.5691 29.6085V25.5518Z" fill="#3A3A3A"/>
<path d="M24.7925 33.552L24.1904 32.2021L24.7904 33.553L24.7925 33.552Z" fill="#206A4B"/>
<path d="M28.3106 31.5041L27.6255 30.0532L28.3076 31.5062L28.3106 31.5041Z" fill="#206A4B"/>
<path d="M15.7185 38.7965V38.8332L23.1054 34.5336L23.0357 30.5973L22.9526 30.5667L15.7185 34.7765V38.7965Z" fill="#3A3A3A"/>
<path d="M24.8706 31.791L24.9045 31.8655L24.9065 31.8175L24.8706 31.791Z" fill="#206A4B"/>
<path d="M26.5697 28.4816V28.4637L26.5675 28.4626L26.5537 28.4711L26.5697 28.4816Z" fill="#206A4B"/>
<path d="M15.5872 28.3126V28.2769L10.7532 25.4568V29.4931L10.7327 29.5013L15.5872 32.3327V28.3126Z" fill="#3A3A3A"/>
<path d="M3.02563 20.949V25.0047L4.61645 25.9332L6.1006 22.7427L3.02563 20.949Z" fill="#3A3A3A"/>
<path d="M15.5872 32.3328V32.3695L20.5401 29.4841V25.6242L20.3678 25.5283L15.5872 28.3128V32.3328Z" fill="#3A3A3A"/>
<path d="M28.2809 24.9762V20.9194L25.1074 22.7672L26.5967 25.9567L28.2809 24.9762Z" fill="#3A3A3A"/>
<path d="M15.6527 22.146V22.1103L12.627 20.3523V24.4091L15.6527 26.166V22.146Z" fill="#3A3A3A"/>
<path d="M5.85352 16.418V20.4747L6.87919 21.0706L8.36436 17.877L5.85352 16.418Z" fill="#3A3A3A"/>
<path d="M15.6528 26.166V26.2027L18.6663 24.4559V20.5144L18.5575 20.4624L15.6528 22.1459V26.166Z" fill="#3A3A3A"/>
<path d="M25.5843 20.445V16.3882L22.8652 17.9646L24.3555 21.1571L25.5843 20.445Z" fill="#3A3A3A"/>
<path d="M14.5349 19.395L15.7185 20.0858V16.0688V16.0658V16.03L14.5493 15.3464L14.5349 15.3791V15.3893V19.395Z" fill="#3A3A3A"/>
<path d="M10.6086 13.0518L11.3676 13.4896L11.3614 13.5018L11.9173 13.8273L11.9266 13.8201L12.0507 13.8875L8.64441 11.8979L8.55005 11.8428V15.8985L9.1275 16.2362L10.6055 13.06L10.6086 13.0518Z" fill="#3A3A3A"/>
<path d="M15.7185 20.0859V20.1226L16.7585 19.5033V15.5465L16.7257 15.4731V15.471L16.7216 15.469L15.7185 16.0659V16.0689V20.0859Z" fill="#3A3A3A"/>
<path d="M20.619 13.1538L20.6252 13.1671L22.1001 16.326L22.7555 15.9352V11.907V11.8784L22.7329 11.8927L20.418 13.2691L20.619 13.1538Z" fill="#3A3A3A"/>
<path d="M19.8652 13.6029L19.8641 13.5999L19.7852 13.6468L19.8652 13.6029Z" fill="#206A4B"/>
<path d="M4.45248 28.1953L5.31815 26.3424L6.80845 23.1559L7.59104 21.4836L9.08237 18.2931L9.84752 16.6565L11.3286 13.4895L11.3306 13.4844L11.3614 13.5017L11.3676 13.4895L10.6086 13.0518L10.6055 13.0599L9.1275 16.2362L8.3644 17.8768L6.87922 21.0704L6.10074 22.7427L4.61659 25.9332L3.754 27.7892L2.2678 30.9827L1.29443 33.0764L1.98676 33.4488L2.95807 31.3827L3.65451 29.9012L4.45248 28.1953Z" fill="#3A3A3A"/>
<path d="M2.93043 31.8868L2.97043 31.8602L3.34481 31.6082L3.74482 31.3388H3.74379L3.70071 30.1818L3.74072 30.1553L4.5951 29.5798L4.55202 28.4299L4.59202 28.4024L4.69356 28.335L4.72434 28.3136L4.72536 28.2952L4.78382 28.2738L5.44743 27.8269L5.40436 26.6811L5.44436 26.6546L5.63308 26.527L6.22489 26.1281L6.21771 26.124L6.17361 24.968L6.21361 24.9405L7.05364 24.3752L6.98389 24.3375L6.94287 23.2335L6.94081 23.1804L6.98081 23.1539L7.8352 22.5774L8.21162 22.7713L8.2188 22.7672L7.83417 22.558L7.79828 21.604L7.7911 21.401L7.8311 21.3734L8.68548 20.798L8.6424 19.6409L8.68241 19.6144L9.53679 19.039L9.51833 18.5472L9.49371 17.8819L9.53371 17.8554L10.3071 17.334L10.2917 16.9157L10.264 16.1811L10.304 16.1545L11.0774 15.6332L11.0343 14.4904L11.0743 14.4639L11.9092 13.8333L11.9174 13.8272L11.3615 13.5017L11.3307 13.4844L11.3286 13.4895L9.84757 16.6565L9.08242 18.2931L7.59109 21.4836L6.8085 23.1559L5.3182 26.3424L4.45253 28.1953L3.65456 29.9012L2.9612 31.3848L1.99194 33.456L3.00531 32.9958L2.97454 32.9785L2.93043 31.8868Z" fill="#3A3A3A"/>
<path d="M5.61768 33.355L4.07302 32.5112L2.93042 31.8867L2.97452 32.9785L3.00529 32.9958L5.24434 34.2732L5.61973 33.4274L5.61768 33.355Z" fill="#3A3A3A"/>
<path d="M4.68225 30.7186L3.70068 30.1819L3.74376 31.3389H3.74479L4.66276 31.8409L6.00024 32.5725L6.06076 32.4358L6.38897 31.6981L6.38692 31.6501L4.68225 30.7186Z" fill="#3A3A3A"/>
<path d="M4.552 28.4299L4.59508 29.5798L4.59611 29.5859L4.70175 29.6441L6.79412 30.7879L6.82182 30.7256L7.19926 29.8757L4.72124 28.5218L4.552 28.4299Z" fill="#3A3A3A"/>
<path d="M4.72413 28.3137L4.69336 28.3351L4.72413 28.3525V28.3137Z" fill="#E7D8C9"/>
<path d="M5.4043 26.6812L5.44738 27.827V27.8382L5.64943 27.9484L5.66892 27.9412L7.61462 28.9432L7.99207 28.0953L6.87819 27.4872L5.4043 26.6812Z" fill="#3A3A3A"/>
<path d="M6.17358 24.968L6.21769 26.124L6.22487 26.1281L7.2208 26.673L8.35006 27.2892L8.40545 27.1637L8.7552 26.3781L7.2208 25.5394L6.17358 24.968Z" fill="#3A3A3A"/>
<path d="M6.94067 23.1804L6.94273 23.2335L6.98375 24.3375L7.0535 24.3752L7.22068 24.467L9.13869 25.5149L9.16946 25.4465L9.49255 24.7211L9.54486 24.6038L7.22068 23.3335L6.94067 23.1804Z" fill="#3A3A3A"/>
<path d="M7.79102 21.4011L7.7982 21.6042L7.83409 22.5582L8.21872 22.7673L8.46693 22.903L9.94185 23.7101L9.95929 23.6713L10.2465 23.0255L10.348 22.7979L9.11926 22.1266L7.79102 21.4011Z" fill="#3A3A3A"/>
<path d="M8.64233 19.6411L8.68541 20.7981L9.27825 21.1216L10.7378 21.9195L10.7614 21.8674L11.1439 21.0083L9.44338 20.0788L8.64233 19.6411Z" fill="#3A3A3A"/>
<path d="M9.49365 17.8821L9.51827 18.5473L9.53673 19.0391L9.60237 19.0748L11.5337 20.1298L11.5573 20.0788L11.6804 19.8023L11.9399 19.2187L9.91213 18.1106L9.49365 17.8821Z" fill="#3A3A3A"/>
<path d="M10.2639 16.1812L10.2916 16.9158L10.307 17.3341V17.3382L10.3142 17.3423L12.2937 18.4238L12.3522 18.2901L12.4127 18.1555L12.6989 17.5116L10.7768 16.4617L10.2639 16.1812Z" fill="#3A3A3A"/>
<path d="M11.0342 14.4905L11.0773 15.6332V15.6475L11.1757 15.7006L13.0486 16.7239L13.1112 16.5842L13.4548 15.8128L11.6373 14.82L11.0342 14.4905Z" fill="#3A3A3A"/>
<path d="M11.9266 13.8202L11.9173 13.8273L11.9091 13.8335L12.0968 13.9447L13.8282 14.9711L13.8446 14.9354L13.8733 14.8711L13.8784 14.8589L14.0364 14.9589L14.5707 15.2976L14.5677 15.3037L14.5492 15.3466L15.7185 16.0302V16.0659L16.7216 15.469L16.7257 15.4711L16.7236 15.468L16.7226 15.4649L17.4149 15.0262L17.4252 15.0507L17.4283 15.0578L19.0837 14.0794L19.2027 14.0079L19.1904 14.0008L19.1699 13.9875L19.0663 14.0477L19.0601 14.0375L19.7853 13.6467L19.8642 13.5998L19.8601 13.5917L20.4181 13.2692L22.7331 11.8928L19.6571 9.95117V11.7153L18.4704 12.4683L17.4283 13.1499L17.3955 13.1284V13.1509L15.6621 14.2518L14.1492 13.2907L13.0876 12.6264L13.022 12.5754L11.6671 11.7153V10.042L8.55005 11.8418L8.64441 11.8979L12.0507 13.8875L11.9266 13.8202Z" fill="#3A3A3A"/>
<path d="M5.36743 35.5009L5.52026 35.5835L6.48029 33.4296L7.10287 32.0338L7.91418 30.2064L8.74292 28.3403L10.1727 25.1181L10.9266 23.4214L12.221 20.5053L12.223 20.4992L12.3574 20.1961L12.9779 18.7983L12.9923 18.7667L13.022 18.7004L13.0456 18.6473L13.0887 18.5504L13.7328 17.0985L13.7615 17.0342L13.7687 17.0168L13.8026 16.9403L14.5 15.369L14.5093 15.3497L14.5185 15.3293L14.5349 15.2915V15.3303V15.3384V15.3792L14.5493 15.3466L14.5677 15.3037L14.5708 15.2976L14.0364 14.9589L13.8785 14.8589L13.8733 14.8711L13.8446 14.9354L13.8282 14.9711L13.4549 15.8129L13.1113 16.5842L13.0487 16.724L12.6989 17.5117L12.4128 18.1555L12.3523 18.2902L12.2938 18.4239L11.9399 19.2187L11.6804 19.8023L11.5574 20.0788L11.5338 20.1298L11.144 21.0083L10.7614 21.8674L10.7379 21.9195L10.3481 22.7979L10.2466 23.0255L9.95937 23.6713L9.94193 23.7101L9.545 24.6039L9.49269 24.7212L9.1696 25.4467L9.13883 25.515L8.75523 26.3782L8.40548 27.1639L8.35009 27.2894L8.05982 27.9424L7.99213 28.0954L7.61468 28.9433L7.58596 29.0066L7.23005 29.8085L7.19929 29.8759L6.82184 30.7258L6.79414 30.788L6.42285 31.6237L6.389 31.6981L6.06079 32.4358L6.00027 32.5725L5.79616 33.0317L5.67103 33.3143L5.61975 33.4276L5.24435 34.2734L4.83716 35.1876L4.8269 35.2101L5.36743 35.5009Z" fill="#3A3A3A"/>
<path d="M5.52417 35.5906L8.14784 34.3989L8.18784 34.3806L8.25759 30.4299L8.28323 30.4207L10.7325 29.5014L10.753 29.4932V25.4569L12.627 24.4151V24.409V20.3523V20.3472L14.5347 19.4309V19.3952V15.3895V15.3793V15.3384V15.3303V15.2915L14.5183 15.3293L14.5091 15.3497L14.4998 15.369L13.8024 16.9403L13.7685 17.0169L13.7613 17.0342L13.7326 17.0985L13.0885 18.5504L13.0454 18.6473L13.0218 18.7004L12.9921 18.7667L12.9777 18.7983L12.3572 20.1962L12.2228 20.4992L12.2208 20.5053L10.9264 23.4214L10.1725 25.1181L8.74273 28.3403L7.91399 30.2064L7.10268 32.0338L6.48317 33.4317L5.52417 35.5906Z" fill="#3A3A3A"/>
<path d="M26.5967 25.9567L25.1074 22.7672L24.3556 21.1571L22.8653 17.9646L22.1002 16.326L20.6253 13.1671L20.6191 13.1538L20.4181 13.2691L19.8601 13.5915L19.8642 13.5997L19.8652 13.6027L19.897 13.5864L19.9011 13.5956L21.3822 16.7525L22.1474 18.3809L23.6438 21.5694L24.3997 23.1804L25.8952 26.3658L26.8121 28.3197L27.6255 30.0533L28.3106 31.5041L29.3066 33.6162L29.9476 33.2713L29.9989 33.2438L29.9979 33.2417L28.9999 31.1032L27.5106 27.9137L26.5967 25.9567Z" fill="#3A3A3A"/>
<path d="M19.0601 14.0374L19.0662 14.0476L19.1698 13.9874L19.1903 14.0007L19.2026 14.0078L20.2191 14.6312L20.2591 14.6578L20.216 15.8015L20.9893 16.3219L21.0293 16.3494L21.0058 16.9759L20.9863 17.5014L21.7596 18.0227L21.7996 18.0493L21.7791 18.5941L21.7566 19.2063L22.6109 19.7818L22.6509 19.8093L22.6079 20.9653L23.4622 21.5418L23.5022 21.5683L23.4992 21.653L23.4592 22.7254L23.0745 22.9356L23.0817 22.9396L23.4581 22.7458L24.2407 23.2723L24.3125 23.3212L24.3525 23.3478L24.3095 24.5048L24.2407 24.5426L25.0797 25.1078L25.1197 25.1354L25.0767 26.2914L25.0684 26.2965L25.5074 26.5913L25.849 26.8219L25.889 26.8485L25.8469 27.9943L26.5095 28.4412L26.567 28.4626L26.569 28.4636V28.481L26.7013 28.5697L26.7413 28.5973L26.6982 29.7472L27.5526 30.3226L27.5926 30.3492L27.5496 31.5062L27.9003 31.7429L28.3229 32.0276L28.3629 32.0541L28.3188 33.1458L28.288 33.1632L29.3014 33.6244L28.3075 31.5062L27.6254 30.0533L26.8121 28.3198L25.8951 26.3659L24.3997 23.1804L23.6438 21.5694L22.1473 18.3809L21.3822 16.7525L19.9011 13.5956L19.897 13.5864L19.8652 13.6028L19.7852 13.6466L19.0601 14.0374Z" fill="#3A3A3A"/>
<path d="M25.6756 33.5224L25.6736 33.5949L26.05 34.4417L28.288 33.1633L28.3188 33.1459L28.3629 32.0542L27.2203 32.6786L25.6756 33.5224Z" fill="#3A3A3A"/>
<path d="M24.9063 31.8174L24.9043 31.8653L25.2325 32.603L25.293 32.7397L26.6305 32.0081L27.5495 31.5062L27.5926 30.3491L26.611 30.8858L24.9063 31.8174Z" fill="#3A3A3A"/>
<path d="M24.094 30.0442L24.4714 30.8931L24.4991 30.9554L26.5925 29.8116L26.6982 29.7544V29.7473L26.7413 28.5974L26.572 28.6892L24.094 30.0442Z" fill="#3A3A3A"/>
<path d="M23.3022 28.2628L23.6787 29.1107L23.7074 29.1749L25.6439 28.1159L25.8459 28.0057L25.8469 27.9944L25.889 26.8486L24.4151 27.6547L23.3022 28.2628Z" fill="#3A3A3A"/>
<path d="M22.5381 26.5456L22.8878 27.3312L22.9432 27.4577L24.0725 26.8404L25.0684 26.2966L25.0766 26.2915L25.1197 25.1355L24.0725 25.7069L22.5381 26.5456Z" fill="#3A3A3A"/>
<path d="M21.7483 24.7712L22.1237 25.614L22.1545 25.6824L24.0725 24.6345L24.2407 24.5427L24.3094 24.5049L24.3525 23.3479L24.0725 23.5009L21.7483 24.7712Z" fill="#3A3A3A"/>
<path d="M20.9463 22.9652L21.0048 23.0988L21.334 23.8396L21.3514 23.8773L22.8263 23.0713L23.0746 22.9356L23.4592 22.7254L23.4992 21.653L23.5023 21.5684L22.174 22.2938L20.9463 22.9652Z" fill="#3A3A3A"/>
<path d="M20.1504 21.1755L20.5319 22.0346L20.5555 22.0877L22.0151 21.2898L22.6079 20.9653L22.651 19.8093L21.8499 20.247L20.1504 21.1755Z" fill="#3A3A3A"/>
<path d="M19.3535 19.3859L19.571 19.8747L19.7371 20.2461L19.7597 20.2981L21.691 19.2421L21.7567 19.2064L21.7792 18.5942L21.7997 18.0493L21.3751 18.2819L19.3535 19.3859Z" fill="#3A3A3A"/>
<path d="M18.5945 17.6801L18.8519 18.2576L18.9412 18.4586L19.0006 18.5912L20.9597 17.5209L20.9864 17.5056V17.5015L21.0058 16.9761L21.0294 16.3496L20.4838 16.6475L18.5945 17.6801Z" fill="#3A3A3A"/>
<path d="M17.8396 15.98L18.1822 16.7514L18.2447 16.8922L20.0725 15.8933L20.2161 15.8148V15.8015L20.2592 14.6577L19.5966 15.0199L17.8396 15.98Z" fill="#3A3A3A"/>
<path d="M25.6737 33.5948L25.6224 33.4816L25.4768 33.154L25.2932 32.7398L25.2327 32.6031L24.9044 31.8654L24.8706 31.7909L24.4993 30.9553L24.4716 30.893L24.0942 30.0441L24.0439 29.9309L23.7075 29.1748L23.6788 29.1105L23.3023 28.2627L23.1649 27.9555L22.9434 27.4576L22.888 27.3311L22.5382 26.5455L22.1546 25.6823L22.1238 25.6139L21.7485 24.7711L21.732 24.7334L21.3515 23.8773L21.3341 23.8396L21.0048 23.0988L20.9464 22.9652L20.5556 22.0877L20.532 22.0347L20.1505 21.1756L19.7597 20.2981L19.7371 20.246L19.5709 19.8747L19.3535 19.3859L19.0007 18.5911L18.9412 18.4585L18.852 18.2575L18.5945 17.68L18.2448 16.8923L18.1822 16.7515L17.8396 15.9801L17.4283 15.0578L17.4252 15.0506L17.415 15.0261L16.7227 15.4649L16.7237 15.4679L16.7257 15.471V15.473L16.7586 15.5465V15.4975V15.4587L16.7852 15.5169L17.4909 17.1076L17.5247 17.1851L17.5319 17.2014L17.5606 17.2657L18.1791 18.6584L18.2478 18.8145L18.2714 18.8676L18.3012 18.9339L18.3155 18.9656L18.893 20.2675L19.0704 20.6664L19.0735 20.6725L20.3248 23.4937L21.051 25.1303L22.4818 28.3535L23.3598 30.3298L24.1906 32.2021L24.7926 33.552L25.7722 35.7467L25.7732 35.7507L26.4665 35.3783L26.4512 35.3436L26.0501 34.4417L25.6737 33.5948Z" fill="#3A3A3A"/>
<path d="M24.1906 32.2021L23.3598 30.3298L22.4818 28.3535L21.051 25.1303L20.3248 23.4937L19.0735 20.6725L19.0704 20.6664L18.893 20.2675L18.3155 18.9656L18.3012 18.9339L18.2714 18.8676L18.2478 18.8146L18.1791 18.6584L17.5606 17.2657L17.5319 17.2014L17.5247 17.1851L17.4909 17.1076L16.7852 15.5169L16.7585 15.4587V15.4975V15.5465V19.5033V19.5982L18.5576 20.4624L18.6663 20.5144V24.4559V24.5824L20.3679 25.5282L20.5402 25.6241V29.484V29.6605L22.9526 30.5665L23.0357 30.5971L23.1054 34.5335V34.5478L25.7588 35.7538L25.7691 35.7589L25.765 35.7497L24.7906 33.553L24.1906 32.2021Z" fill="#3A3A3A"/>
<path d="M13.0219 12.5753L13.0845 12.6151V11.1612L13.9655 11.7203V13.1743L14.1491 13.2906L15.662 14.2517V11.8744L12.2485 9.70622L11.667 9.33789V10.0419V11.7152L13.0219 12.5753Z" fill="#3A3A3A"/>
<path d="M15.6621 11.8744V14.2517L17.3955 13.1508V13.1284V11.7203L18.2765 11.1612V12.5917L18.4704 12.4682L19.6571 11.7152V9.9511V9.33789L19.173 9.64501L15.6621 11.8744Z" fill="#3A3A3A"/>
<path d="M15.6619 10.9898L18.4733 9.20425L19.9769 8.24923L18.9892 7.69622L15.6599 9.64196L12.3849 7.66357L11.3469 8.24923L12.9777 9.28485L15.6619 10.9898Z" fill="#3A3A3A"/>
<path d="M15.6619 11.8744V11.1612V10.9898L12.9777 9.28489L11.3469 8.24927V9.13388L11.6669 9.33794L12.2485 9.70628L15.6619 11.8744Z" fill="#3A3A3A"/>
<path d="M15.6621 10.9898V11.1612V11.8744L19.173 9.64506L19.6571 9.33794L19.9771 9.13388V8.24927L18.4735 9.20428L15.6621 10.9898Z" fill="#3A3A3A"/>
<path d="M15.7297 7.69623V9.27261L17.2129 8.4084L18.7842 7.49216L19.7309 6.94017L15.7297 0V0.0173453V5.55255V7.69623Z" fill="#3A3A3A"/>
<path d="M14.3562 8.489L15.7296 9.28994V9.2726V7.69621V5.55254V0.017334L11.7295 6.95751L12.59 7.4595L14.3562 8.489Z" fill="#3A3A3A"/>
</g>
<defs>
<clipPath id="clip0_2350_30">
<rect width="100" height="54.6296" fill="white"/>
</clipPath>
</defs>
</svg>
