<svg width="189" height="63" viewBox="0 0 189 63" fill="none" xmlns="http://www.w3.org/2000/svg">
<g clip-path="url(#clip0_2107_8960)">
<path d="M161.495 59.033V62.999H188.788V45.1113H184.811V59.033H161.495ZM161.495 0V3.96626H184.811V17.8887H188.788V0H161.495ZM147.42 30.6835V21.4672H153.658C156.7 21.4672 157.792 22.478 157.792 25.2395V26.8726C157.792 29.7112 156.739 30.6835 153.658 30.6835H147.42ZM157.323 32.3165C160.169 31.5777 162.157 28.9328 162.157 25.7835C162.157 23.8004 161.378 22.0112 159.896 20.5721C158.025 18.7828 155.529 17.8887 152.293 17.8887H143.521V45.1104H147.42V34.261H153.269C156.27 34.261 157.479 35.5053 157.479 38.617V45.1113H161.456V39.2391C161.456 34.9613 160.443 33.3283 157.323 32.8615V32.3165ZM124.494 33.2106H136.503V29.6331H124.494V21.4662H137.673V17.8887H120.517V45.1104H138.258V41.5328H124.494V33.2106ZM111.432 34.6498V36.5162C111.432 40.4439 109.989 41.7277 106.364 41.7277H105.506C101.879 41.7277 100.125 40.5606 100.125 35.1552V27.8439C100.125 22.3999 101.958 21.2714 105.583 21.2714H106.363C109.911 21.2714 111.042 22.5938 111.08 26.2494H115.369C114.98 20.8827 111.393 17.5 106.012 17.5C103.4 17.5 101.216 18.3169 99.5788 19.8718C97.1223 22.1665 95.7579 26.0556 95.7579 31.4996C95.7579 36.7496 96.9279 40.6387 99.3449 43.0491C100.982 44.6436 103.244 45.4991 105.466 45.4991C107.806 45.4991 109.951 44.5654 111.042 42.5437H111.587V45.1104H115.174V31.0722H104.608V34.6498H111.432ZM77.0439 21.4662H81.2942C85.3106 21.4662 87.4942 22.4771 87.4942 27.922V35.0771C87.4942 40.5211 85.3106 41.5328 81.2942 41.5328H77.0439V21.4662ZM81.6445 45.1113C89.092 45.1113 91.8594 39.4726 91.8594 31.5005C91.8594 23.4117 88.8966 17.8896 81.5661 17.8896H73.144V45.1113H81.6445ZM54.3131 33.2106H66.3222V29.6331H54.3131V21.4662H67.4913V17.8887H50.3352V45.1104H68.0765V41.5328H54.3131V33.2106ZM31.3091 17.8887H27.3324V45.1104H45.2678V41.5328H31.3091V17.8887ZM0 45.1113V63H27.2928V59.033H3.97662V45.1113H0ZM0 0V17.8887H3.97662V3.96626H27.2928V0H0Z" fill="black"/>
</g>
<defs>
<clipPath id="clip0_2107_8960">
<rect width="189" height="63" fill="white"/>
</clipPath>
</defs>
</svg>
