<svg width="333" height="41" viewBox="0 0 333 41" fill="none" xmlns="http://www.w3.org/2000/svg">
<g clip-path="url(#clip0_2107_9012)">
<path d="M14.1197 38.854L26.9069 26.086L39.6941 38.854L52.4813 26.086L65.2685 38.854L78.0556 26.086L52.4813 0.550049L39.6941 13.3181L26.9069 0.550049L1.33252 26.086L14.1197 38.854Z" fill="#032131"/>
<path d="M94.0376 38.3223H99.9517V10.9243L111.141 38.3223H116.309L127.497 10.9243V38.3223H133.411V1.08228H125.633L113.911 30.3955L101.976 1.08228H94.0376V38.3223Z" fill="#032131"/>
<path d="M152.602 38.6415C159.369 38.6415 163.951 34.545 164.91 29.172H159.156C158.356 32.2042 155.799 33.96 152.283 33.96C147.754 33.96 144.823 30.9275 144.664 26.299V25.9267H165.23C165.336 25.1818 165.389 24.437 165.389 23.7454C165.23 15.7654 159.955 10.7646 152.069 10.7646C144.024 10.7646 138.643 16.3506 138.643 24.7562C138.643 33.1087 144.024 38.6415 152.602 38.6415ZM144.877 21.7238C145.303 17.8402 148.447 15.393 152.123 15.393C156.119 15.393 158.943 17.6806 159.422 21.7238H144.877Z" fill="#032131"/>
<path d="M171.805 30.9275C171.805 35.875 174.042 38.3223 179.264 38.3223H184.592V33.2683H180.543C178.358 33.2683 177.612 32.4703 177.612 30.3423V16.1379H184.272V11.0839H177.612V3.47632H171.805V11.0839H167.063V16.1379H171.805V30.9275Z" fill="#032131"/>
<path d="M212.875 33.3215C211.703 33.3215 211.117 32.949 211.117 31.566V20.6598C211.117 14.2226 206.961 10.7646 199.715 10.7646C192.842 10.7646 188.26 14.063 187.674 19.383H193.321C193.748 16.989 196.039 15.393 199.449 15.393C203.232 15.393 205.416 17.255 205.416 20.2874V21.9366H198.543C190.924 21.9366 186.875 25.0754 186.875 30.6615C186.875 35.7155 191.03 38.6415 196.998 38.6415C201.42 38.6415 204.191 36.7262 206.002 33.96C206.002 36.673 207.281 38.3222 211.01 38.3222H214.048V33.3215H212.875ZM205.416 27.1502C205.363 31.353 202.592 34.1727 197.797 34.1727C194.653 34.1727 192.736 32.5767 192.736 30.289C192.736 27.5227 194.707 26.1927 198.277 26.1927H205.416V27.1502Z" fill="#032131"/>
<path d="M231.4 38.3223H237.527V24.8095H246.105C253.884 24.8095 258.999 20.1279 258.999 12.9459C258.999 5.71068 253.884 1.08228 246.105 1.08228H231.4V38.3223ZM245.626 6.40228C249.995 6.40228 252.764 8.90268 252.764 12.9459C252.764 16.9359 249.941 19.4895 245.573 19.4895H237.527V6.40228H245.626Z" fill="#032131"/>
<path d="M274.717 38.6415C283.03 38.6415 288.623 33.0555 288.623 24.703C288.623 16.4038 283.03 10.7646 274.717 10.7646C266.407 10.7646 260.812 16.4038 260.812 24.703C260.812 33.0555 266.407 38.6415 274.717 38.6415ZM274.717 33.747C269.87 33.747 266.725 29.97 266.725 24.703C266.725 19.4362 269.87 15.659 274.717 15.659C279.567 15.659 282.764 19.4362 282.764 24.703C282.764 29.97 279.567 33.747 274.717 33.747Z" fill="#032131"/>
<path d="M306.145 38.6415C314.457 38.6415 320.051 33.0555 320.051 24.703C320.051 16.4038 314.457 10.7646 306.145 10.7646C297.835 10.7646 292.239 16.4038 292.239 24.703C292.239 33.0555 297.835 38.6415 306.145 38.6415ZM306.145 33.747C301.297 33.747 298.153 29.97 298.153 24.703C298.153 19.4362 301.297 15.659 306.145 15.659C310.994 15.659 314.192 19.4362 314.192 24.703C314.192 29.97 310.994 33.747 306.145 33.747Z" fill="#032131"/>
<path d="M324.677 38.3223H330.434V1.08228H324.677V38.3223Z" fill="#032131"/>
</g>
<defs>
<clipPath id="clip0_2107_9012">
<rect width="333" height="40" fill="white" transform="translate(0 0.5)"/>
</clipPath>
</defs>
</svg>
