<svg width="104" height="104" viewBox="0 0 104 104" fill="none" xmlns="http://www.w3.org/2000/svg">
<path d="M94.25 26C94.2488 23.5689 93.5659 21.1868 92.2788 19.1242C90.9917 17.0617 89.1521 15.4015 86.9688 14.332C84.7855 13.2625 82.346 12.8267 79.9275 13.074C77.509 13.3213 75.2082 14.2419 73.2866 15.7312C71.365 17.2204 69.8995 19.2187 69.0565 21.499C68.2135 23.7794 68.0269 26.2504 68.5178 28.6315C69.0087 31.0126 70.1574 33.2083 71.8336 34.9693C73.5097 36.7303 75.6461 37.986 78 38.5938V45.5C78 46.362 77.6576 47.1886 77.0481 47.7981C76.4386 48.4076 75.612 48.75 74.75 48.75H39C37.8926 48.7497 36.7933 48.9393 35.75 49.3106V38.5938C38.8137 37.8027 41.4836 35.9215 43.2595 33.3027C45.0353 30.684 45.7951 27.5074 45.3964 24.3685C44.9977 21.2296 43.4679 18.3439 41.0938 16.2522C38.7196 14.1606 35.6641 13.0066 32.5 13.0066C29.3359 13.0066 26.2804 14.1606 23.9063 16.2522C21.5321 18.3439 20.0023 21.2296 19.6036 24.3685C19.205 27.5074 19.9647 30.684 21.7406 33.3027C23.5164 35.9215 26.1864 37.8027 29.25 38.5938V65.4063C26.1864 66.1973 23.5164 68.0785 21.7406 70.6973C19.9647 73.3161 19.205 76.4926 19.6036 79.6315C20.0023 82.7704 21.5321 85.6562 23.9063 87.7478C26.2804 89.8395 29.3359 90.9935 32.5 90.9935C35.6641 90.9935 38.7196 89.8395 41.0938 87.7478C43.4679 85.6562 44.9977 82.7704 45.3964 79.6315C45.7951 76.4926 45.0353 73.3161 43.2595 70.6973C41.4836 68.0785 38.8137 66.1973 35.75 65.4063V58.5C35.75 57.6381 36.0924 56.8114 36.7019 56.2019C37.3114 55.5924 38.1381 55.25 39 55.25H74.75C77.3359 55.25 79.8158 54.2228 81.6443 52.3943C83.4728 50.5658 84.5 48.0859 84.5 45.5V38.5938C87.2896 37.8692 89.76 36.2398 91.5243 33.9609C93.2887 31.6819 94.2473 28.8821 94.25 26ZM26 26C26 24.7144 26.3812 23.4577 27.0955 22.3888C27.8097 21.3199 28.8249 20.4868 30.0126 19.9948C31.2003 19.5028 32.5072 19.3741 33.7681 19.6249C35.029 19.8757 36.1872 20.4948 37.0962 21.4038C38.0053 22.3129 38.6243 23.4711 38.8751 24.7319C39.1259 25.9928 38.9972 27.2997 38.5052 28.4875C38.0133 29.6752 37.1802 30.6903 36.1112 31.4046C35.0423 32.1188 33.7856 32.5 32.5 32.5C30.7761 32.5 29.1228 31.8152 27.9038 30.5962C26.6849 29.3772 26 27.7239 26 26ZM39 78C39 79.2856 38.6188 80.5423 37.9046 81.6112C37.1904 82.6801 36.1752 83.5133 34.9875 84.0052C33.7998 84.4972 32.4928 84.6259 31.2319 84.3751C29.9711 84.1243 28.8129 83.5052 27.9038 82.5962C26.9948 81.6872 26.3757 80.529 26.1249 79.2681C25.8741 78.0072 26.0028 76.7003 26.4948 75.5126C26.9868 74.3249 27.8199 73.3097 28.8888 72.5955C29.9577 71.8812 31.2145 71.5 32.5 71.5C34.2239 71.5 35.8772 72.1848 37.0962 73.4038C38.3152 74.6228 39 76.2761 39 78ZM81.25 32.5C79.9645 32.5 78.7077 32.1188 77.6388 31.4046C76.5699 30.6903 75.7368 29.6752 75.2448 28.4875C74.7528 27.2997 74.6241 25.9928 74.8749 24.7319C75.1257 23.4711 75.7448 22.3129 76.6538 21.4038C77.5629 20.4948 78.7211 19.8757 79.9819 19.6249C81.2428 19.3741 82.5498 19.5028 83.7375 19.9948C84.9252 20.4868 85.9404 21.3199 86.6546 22.3888C87.3688 23.4577 87.75 24.7144 87.75 26C87.75 27.7239 87.0652 29.3772 85.8462 30.5962C84.6272 31.8152 82.9739 32.5 81.25 32.5Z" fill="#FF4C52"/>
</svg>
