<svg width="322" height="43" viewBox="0 0 322 43" fill="none" xmlns="http://www.w3.org/2000/svg">
<g clip-path="url(#clip0_2107_8989)">
<path d="M16.259 43C11.4817 43 7.56747 41.8852 4.51639 39.6555C1.50546 37.3861 0 34.1611 0 29.9805C0 29.1046 0.100364 28.0296 0.301094 26.7555C0.822987 23.8889 1.56568 20.4449 2.52918 16.4236C5.2591 5.47455 12.3047 0 23.6659 0C26.7571 0 29.5272 0.517593 31.9761 1.55278C34.425 2.54816 36.3519 4.06111 37.7571 6.09166C39.1621 8.08241 39.8647 10.4713 39.8647 13.2583C39.8647 14.0945 39.7644 15.1495 39.5637 16.4236C38.9614 19.9671 38.2388 23.4111 37.3958 26.7555C35.9906 32.2102 33.5618 36.2911 30.1094 38.9986C26.6567 41.6661 22.04 43 16.259 43ZM17.1021 34.4C19.3502 34.4 21.2572 33.743 22.8229 32.4291C24.4286 31.1152 25.5728 29.1046 26.2552 26.3973C27.1787 22.6546 27.8811 19.3898 28.363 16.6028C28.5236 15.7667 28.6039 14.9106 28.6039 14.0347C28.6039 10.4116 26.6968 8.6 22.883 8.6C20.6349 8.6 18.7079 9.25695 17.1021 10.5708C15.5364 11.8847 14.4123 13.8954 13.7298 16.6028C13.0072 19.2704 12.2846 22.5352 11.562 26.3973C11.4014 27.1934 11.3211 28.0296 11.3211 28.9055C11.3211 32.5684 13.2481 34.4 17.1021 34.4Z" fill="#FF0420"/>
<path d="M45.9752 42.4027C45.5334 42.4027 45.1923 42.2634 44.9515 41.9847C44.7508 41.6661 44.6904 41.3079 44.7707 40.9097L53.0809 2.09022C53.1612 1.65226 53.3821 1.29393 53.7434 1.01522C54.1046 0.73652 54.4861 0.597168 54.8875 0.597168H70.9055C75.3618 0.597168 78.9347 1.51291 81.6245 3.3444C84.3544 5.17588 85.7195 7.82356 85.7195 11.2874C85.7195 12.2828 85.599 13.318 85.3582 14.393C84.3544 18.9717 82.3271 22.3559 79.276 24.5459C76.2651 26.7356 72.13 27.8304 66.8709 27.8304H58.7414L55.9714 40.9097C55.8911 41.3477 55.6702 41.7059 55.3089 41.9847C54.9476 42.2634 54.5664 42.4027 54.1647 42.4027H45.9752ZM67.2925 19.5888C68.9787 19.5888 70.444 19.131 71.6884 18.2152C72.9732 17.2995 73.8162 15.9856 74.2176 14.2736C74.338 13.5967 74.3984 12.9995 74.3984 12.4819C74.3984 11.3273 74.057 10.4513 73.3746 9.8541C72.6922 9.21708 71.5278 8.89856 69.882 8.89856H62.6557L60.3673 19.5888H67.2925Z" fill="#FF0420"/>
<path d="M99.2875 42.4027C98.8459 42.4027 98.5046 42.2634 98.2637 41.9847C98.0229 41.6661 97.9426 41.3079 98.0229 40.9097L104.707 9.97356H93.9882C93.5466 9.97356 93.2053 9.8342 92.9645 9.55551C92.7638 9.23699 92.7037 8.87865 92.7839 8.48049L94.169 2.09022C94.2493 1.65226 94.4699 1.29393 94.8312 1.01522C95.1925 0.73652 95.574 0.597168 95.9754 0.597168H128.373C128.815 0.597168 129.156 0.73652 129.397 1.01522C129.557 1.25411 129.638 1.493 129.638 1.73189C129.638 1.85133 129.618 1.97078 129.577 2.09022L128.192 8.48049C128.112 8.91847 127.891 9.27681 127.53 9.55551C127.209 9.8342 126.827 9.97356 126.386 9.97356H115.727L109.043 40.9097C108.963 41.3477 108.742 41.7059 108.381 41.9847C108.019 42.2634 107.638 42.4027 107.236 42.4027H99.2875Z" fill="#FF0420"/>
<path d="M131.174 42.4027C130.732 42.4027 130.391 42.2634 130.15 41.9847C129.909 41.6661 129.829 41.3079 129.909 40.9097L138.28 2.09022C138.36 1.65226 138.581 1.29393 138.942 1.01522C139.303 0.73652 139.684 0.597168 140.086 0.597168H148.216C148.657 0.597168 148.998 0.73652 149.239 1.01522C149.4 1.25411 149.48 1.493 149.48 1.73189C149.48 1.85133 149.46 1.97078 149.42 2.09022L141.11 40.9097C141.029 41.3477 140.809 41.7059 140.447 41.9847C140.086 42.2634 139.705 42.4027 139.303 42.4027H131.174Z" fill="#FF0420"/>
<path d="M154.103 42.4027C153.662 42.4027 153.321 42.2634 153.08 41.9847C152.839 41.7059 152.759 41.3477 152.839 40.9097L161.149 2.09022C161.229 1.65226 161.45 1.29393 161.811 1.01522C162.173 0.73652 162.574 0.597168 163.016 0.597168H169.519C170.483 0.597168 171.105 1.03513 171.386 1.91106L177.95 20.7236L192.583 1.91106C192.784 1.59254 193.065 1.29393 193.426 1.01522C193.828 0.73652 194.309 0.597168 194.871 0.597168H201.435C201.877 0.597168 202.218 0.73652 202.459 1.01522C202.619 1.25411 202.7 1.493 202.7 1.73189C202.7 1.85133 202.68 1.97078 202.64 2.09022L194.329 40.9097C194.249 41.3477 194.028 41.7059 193.667 41.9847C193.306 42.2634 192.924 42.4027 192.523 42.4027H185.236C184.795 42.4027 184.454 42.2634 184.213 41.9847C184.012 41.6661 183.952 41.3079 184.032 40.9097L188.729 18.8722L179.516 30.9959C179.114 31.4338 178.733 31.7722 178.371 32.0111C178.01 32.2499 177.589 32.3695 177.107 32.3695H173.976C173.133 32.3695 172.55 31.9115 172.229 30.9959L167.954 18.3347L163.136 40.9097C163.056 41.3477 162.835 41.7059 162.474 41.9847C162.112 42.2634 161.731 42.4027 161.33 42.4027H154.103Z" fill="#FF0420"/>
<path d="M207.257 42.4027C206.815 42.4027 206.474 42.2634 206.233 41.9847C205.993 41.6661 205.912 41.3079 205.993 40.9097L214.363 2.09022C214.443 1.65226 214.664 1.29393 215.025 1.01522C215.386 0.73652 215.768 0.597168 216.169 0.597168H224.299C224.741 0.597168 225.082 0.73652 225.323 1.01522C225.484 1.25411 225.563 1.493 225.563 1.73189C225.563 1.85133 225.544 1.97078 225.503 2.09022L217.193 40.9097C217.114 41.3477 216.893 41.7059 216.53 41.9847C216.169 42.2634 215.787 42.4027 215.386 42.4027H207.257Z" fill="#FF0420"/>
<path d="M245.061 43C241.528 43 238.497 42.5223 235.968 41.5666C233.478 40.6111 231.591 39.337 230.307 37.7445C229.062 36.1518 228.44 34.38 228.44 32.4291C228.44 32.1107 228.48 31.633 228.56 30.9959C228.641 30.6375 228.802 30.3389 229.043 30.1C229.324 29.8611 229.644 29.7416 230.007 29.7416H237.713C238.196 29.7416 238.557 29.8214 238.797 29.9805C239.079 30.1398 239.36 30.4184 239.641 30.8166C239.922 31.8518 240.564 32.708 241.569 33.3848C242.612 34.0616 244.037 34.4 245.843 34.4C248.131 34.4 249.979 34.0416 251.383 33.325C252.789 32.6084 253.633 31.633 253.912 30.3986C253.953 30.2393 253.972 30.0005 253.972 29.682C253.972 28.6866 253.352 27.9102 252.107 27.3527C250.862 26.7555 248.573 26.0589 245.242 25.2625C241.348 24.4264 238.396 23.1723 236.389 21.5C234.382 19.788 233.379 17.5583 233.379 14.8111C233.379 13.8555 233.499 12.8801 233.74 11.8847C234.543 8.18195 236.53 5.27545 239.701 3.16527C242.913 1.05509 247.047 0 252.107 0C255.157 0 257.868 0.5375 260.236 1.6125C262.604 2.6875 264.431 4.06111 265.717 5.73334C267.041 7.36575 267.702 8.99816 267.702 10.6306C267.702 11.1083 267.683 11.4468 267.642 11.6458C267.563 12.0042 267.382 12.3028 267.101 12.5417C266.861 12.7806 266.558 12.9 266.197 12.9H258.128C257.246 12.9 256.643 12.5616 256.323 11.8847C256.282 10.969 255.799 10.1926 254.876 9.55557C253.953 8.91852 252.749 8.6 251.263 8.6C249.496 8.6 248.032 8.91852 246.867 9.55557C245.744 10.1926 245.04 11.1283 244.761 12.3625C244.72 12.5616 244.699 12.8204 244.699 13.1389C244.699 14.0945 245.261 14.8907 246.386 15.5278C247.549 16.125 249.578 16.7421 252.467 17.3792C256.965 18.2551 260.236 19.5093 262.284 21.1417C264.371 22.7741 265.414 24.9441 265.414 27.6514C265.414 28.5671 265.294 29.5625 265.053 30.6375C264.171 34.6986 262.022 37.7843 258.609 39.8945C255.239 41.9648 250.722 43 245.061 43Z" fill="#FF0420"/>
<path d="M273.404 42.4027C272.961 42.4027 272.62 42.2634 272.38 41.9847C272.139 41.7059 272.058 41.3477 272.139 40.9097L280.449 2.09022C280.528 1.65226 280.75 1.29393 281.112 1.01522C281.473 0.73652 281.874 0.597168 282.317 0.597168H288.819C289.783 0.597168 290.405 1.03513 290.686 1.91106L297.251 20.7236L311.883 1.91106C312.084 1.59254 312.366 1.29393 312.726 1.01522C313.128 0.73652 313.609 0.597168 314.171 0.597168H320.736C321.178 0.597168 321.519 0.73652 321.759 1.01522C321.92 1.25411 322 1.493 322 1.73189C322 1.85133 321.981 1.97078 321.94 2.09022L313.63 40.9097C313.548 41.3477 313.327 41.7059 312.967 41.9847C312.606 42.2634 312.224 42.4027 311.823 42.4027H304.537C304.095 42.4027 303.753 42.2634 303.513 41.9847C303.311 41.6661 303.251 41.3079 303.333 40.9097L308.029 18.8722L298.816 30.9959C298.414 31.4338 298.032 31.7722 297.672 32.0111C297.311 32.2499 296.888 32.3695 296.407 32.3695H293.275C292.432 32.3695 291.85 31.9115 291.53 30.9959L287.254 18.3347L282.437 40.9097C282.355 41.3477 282.134 41.7059 281.774 41.9847C281.413 42.2634 281.031 42.4027 280.629 42.4027H273.404Z" fill="#FF0420"/>
</g>
<defs>
<clipPath id="clip0_2107_8989">
<rect width="322" height="43" fill="white"/>
</clipPath>
</defs>
</svg>
