<svg width="230" height="53" viewBox="0 0 230 53" fill="none" xmlns="http://www.w3.org/2000/svg">
<path fill-rule="evenodd" clip-rule="evenodd" d="M0.0534668 26.9046C0.0534668 41.1833 11.6235 52.7582 25.8961 52.7582C40.1688 52.7582 51.7396 41.1833 51.7396 26.9046C51.7396 12.6258 40.1688 1.0509 25.8961 1.0509C11.6235 1.0509 0.0534668 12.6258 0.0534668 26.9046Z" fill="#0C0C4F"/>
<path fill-rule="evenodd" clip-rule="evenodd" d="M14.4968 20.814L15.1348 18.8423C15.2644 18.4413 15.5808 18.1292 15.9831 18.0062L17.9636 17.3968C18.2378 17.313 18.24 16.9261 17.968 16.838L15.9965 16.1998C15.5963 16.07 15.2844 15.7535 15.1607 15.351L14.5524 13.3696C14.4687 13.096 14.0819 13.0931 13.9937 13.3659L13.3558 15.3377C13.2262 15.7379 12.9097 16.0499 12.5074 16.1738L10.5269 16.7824C10.2527 16.8668 10.2498 17.253 10.5224 17.3412L12.494 17.9794C12.8942 18.1092 13.2061 18.4264 13.3298 18.829L13.9381 20.8095C14.0219 21.0838 14.4086 21.0868 14.4968 20.814Z" fill="#FAFAFA"/>
<path fill-rule="evenodd" clip-rule="evenodd" d="M45.8011 19.6666C44.9846 18.7532 43.7103 18.2388 42.4715 18.028C41.2227 17.8254 39.9135 17.8442 38.6807 18.0633C36.1863 18.4855 33.9203 19.5187 31.944 20.7933C30.9175 21.4189 30.0423 22.1427 29.1355 22.8799C28.6987 23.2527 28.3003 23.6498 27.8854 24.0411L26.7518 25.1695C25.5201 26.4576 24.306 27.6307 23.1314 28.6032C21.952 29.5711 20.8493 30.3061 19.7628 30.8196C18.6767 31.3356 17.5147 31.639 16.0002 31.6876C14.499 31.7406 12.7228 31.4695 10.8229 31.0221C8.91276 30.5767 6.90697 29.9417 4.66553 29.3954C5.44762 31.5661 6.62536 33.4843 8.13743 35.2377C9.66724 36.9607 11.5775 38.5312 14.0315 39.5641C16.45 40.6198 19.4894 40.9987 22.3313 40.4269C25.1807 39.8783 27.6812 38.5591 29.7024 37.0336C31.7287 35.4925 33.3682 33.7369 34.7502 31.9119C35.1318 31.4076 35.3336 31.1254 35.6098 30.7313L36.3728 29.6005C36.9032 28.9009 37.3859 28.1044 37.9108 27.4114C38.94 25.9599 39.9546 24.5101 41.1336 23.1744C41.7271 22.4969 42.3526 21.8489 43.0914 21.2262C43.4599 20.9222 43.858 20.6247 44.2989 20.3567C44.7465 20.0677 45.2191 19.8415 45.8011 19.6666Z" fill="url(#paint0_linear_2107_9022)"/>
<path fill-rule="evenodd" clip-rule="evenodd" d="M45.8013 19.6661C44.9241 17.4517 43.2935 15.5878 41.1048 14.2124C38.9294 12.8522 35.9078 12.158 32.9138 12.7497C31.4347 13.0359 30.0017 13.5869 28.7441 14.3206C27.4923 15.0515 26.3705 15.9312 25.3994 16.8751C24.9146 17.3485 24.4745 17.8424 24.0374 18.3392L22.9042 19.7844L21.1541 22.1108C18.923 25.1042 16.5204 28.6121 12.5776 29.6516C8.70695 30.672 7.02816 29.7683 4.66577 29.395C5.09772 30.5107 5.63279 31.5941 6.35817 32.5473C7.07003 33.5198 7.91085 34.4332 8.95623 35.2161C9.48452 35.5921 10.0423 35.9632 10.6617 36.278C11.2784 36.5822 11.9434 36.8497 12.6532 37.0513C14.0651 37.4384 15.6545 37.574 17.1936 37.3658C18.7334 37.1603 20.2052 36.6721 21.4916 36.0237C22.7875 35.3815 23.9164 34.5994 24.9244 33.7739C26.9283 32.1092 28.487 30.2697 29.8035 28.4103C30.4657 27.4808 31.0669 26.5335 31.6229 25.5861L32.2772 24.4582C32.4772 24.1285 32.6796 23.7968 32.8851 23.4878C33.7142 22.2464 34.5251 21.2511 35.5101 20.504C36.4815 19.7376 37.834 19.1714 39.6415 19.0398C41.4414 18.9068 43.5193 19.1527 45.8013 19.6661Z" fill="#FAFAFA"/>
<path fill-rule="evenodd" clip-rule="evenodd" d="M36.0635 38.0637C36.0635 39.69 37.382 41.009 39.0076 41.009C40.6332 41.009 41.9502 39.69 41.9502 38.0637C41.9502 36.4373 40.6332 35.1183 39.0076 35.1183C37.382 35.1183 36.0635 36.4373 36.0635 38.0637Z" fill="#EC796B"/>
<path d="M225.913 19.6755V16.7015C225.913 16.5836 225.817 16.488 225.7 16.488H208.761C208.642 16.488 208.547 16.5836 208.547 16.7015V19.6755H215.431V38.9156H219.028V19.6755H225.913Z" fill="#0C0C4F"/>
<path d="M190.844 16.488C190.727 16.488 190.631 16.5836 190.631 16.7015V38.702C190.631 38.8199 190.727 38.9156 190.844 38.9156H205.099C205.217 38.9156 205.312 38.8199 205.312 38.702V35.7596H194.229V28.7111H203.386V25.6183H194.229V19.644H204.523V16.7015C204.523 16.5836 204.427 16.488 204.31 16.488H190.844Z" fill="#0C0C4F"/>
<path d="M182.579 38.785L182.656 38.9156H185.419C185.538 38.9156 185.632 38.8199 185.632 38.702V16.7015C185.632 16.5836 185.538 16.488 185.419 16.488H182.099V32.0203C181.523 31.1022 180.854 30.0916 180.091 28.9885C179.121 27.5531 178.077 26.0969 176.959 24.62C175.862 23.1221 174.744 21.6767 173.605 20.284C172.486 18.8689 171.429 17.6314 170.434 16.5721L170.355 16.488H167.754C167.636 16.488 167.541 16.5836 167.541 16.7015V38.702C167.541 38.8199 167.636 38.9156 167.754 38.9156H171.075V22.2764C171.528 22.8127 172.012 23.4071 172.525 24.0598C173.217 24.9415 173.93 25.8867 174.666 26.8954L174.667 26.8965C175.402 27.8834 176.137 28.9138 176.873 29.9853V29.9867L176.874 29.9882C177.631 31.0602 178.355 32.1215 179.049 33.1722L179.05 33.1742C179.742 34.2032 180.382 35.2001 180.97 36.1653V36.1671L180.971 36.1687C181.581 37.1362 182.117 38.0082 182.579 38.785Z" fill="#0C0C4F"/>
<path d="M163.197 16.9347L163.278 16.8453C163.403 16.7083 163.305 16.488 163.12 16.488H159.182L159.103 16.5806C158.58 17.1872 157.93 17.9 157.153 18.7195C156.396 19.5189 155.586 20.3604 154.724 21.2442C153.862 22.1276 152.99 23.0112 152.106 23.8946C151.399 24.5845 150.74 25.2202 150.129 25.8021V16.488H146.745C146.628 16.488 146.532 16.5836 146.532 16.7015V38.702C146.532 38.8199 146.628 38.9156 146.745 38.9156H150.129V28.7411C150.872 29.2276 151.631 29.7967 152.406 30.4493L152.407 30.4502L152.409 30.4511C153.348 31.224 154.268 32.0703 155.166 32.9906L155.169 32.9928L155.171 32.9948C156.09 33.8934 156.957 34.8441 157.771 35.8473L157.772 35.8483L157.774 35.8493C158.588 36.8315 159.307 37.8125 159.933 38.7922L160.012 38.9156H163.849C164.013 38.9156 164.117 38.7381 164.034 38.5956L163.989 38.5157C163.412 37.5128 162.69 36.4599 161.821 35.3571C160.974 34.2558 160.063 33.1761 159.09 32.1179C158.117 31.0594 157.122 30.0642 156.105 29.132C155.185 28.2879 154.305 27.563 153.467 26.9585C154.18 26.2623 154.936 25.5145 155.736 24.7154C156.62 23.8301 157.505 22.9343 158.39 22.0278C159.296 21.1003 160.16 20.2044 160.982 19.3398L160.983 19.3387L160.985 19.3375C161.806 18.4525 162.543 17.6516 163.197 16.9347Z" fill="#0C0C4F"/>
<path fill-rule="evenodd" clip-rule="evenodd" d="M126.116 16.32C125.998 16.32 125.902 16.4156 125.902 16.5334V38.7156C125.902 38.8334 125.998 38.929 126.116 38.929H129.163V30.7734H133.616C134.117 31.3734 134.606 32.0011 135.081 32.6566L135.084 32.6591L135.085 32.6615C135.864 33.6838 136.584 34.75 137.245 35.8605L137.247 35.8617C137.845 36.8444 138.368 37.8164 138.814 38.7749L138.886 38.9291H142.493C142.648 38.9291 142.75 38.7698 142.687 38.6291C142.272 37.7198 141.822 36.8294 141.323 35.962C140.644 34.7497 139.901 33.5496 139.091 32.3615C138.628 31.6826 138.155 31.0229 137.672 30.3828C139.018 29.9713 140.082 29.2273 140.852 28.1474L140.853 28.1465C141.777 26.8394 142.234 25.3023 142.234 23.5466C142.234 22.3401 142.025 21.2362 141.601 20.2387C141.175 19.2267 140.534 18.3875 139.68 17.7254C138.832 17.0596 137.788 16.6361 136.557 16.4461C136.27 16.3932 135.974 16.3616 135.668 16.3508C135.37 16.3303 135.109 16.3198 134.888 16.3198C133.953 16.3198 133.017 16.3197 132.083 16.3196C130.093 16.3194 128.105 16.3193 126.116 16.32ZM138.912 23.5466C138.912 24.1293 138.815 24.7027 138.62 25.2679C138.43 25.8107 138.125 26.2865 137.705 26.6976C137.307 27.087 136.781 27.3631 136.116 27.5176C135.905 27.5655 135.678 27.5995 135.434 27.619C135.195 27.6391 134.982 27.6488 134.797 27.6488H129.163V19.4444H134.797C134.982 19.4444 135.193 19.4542 135.432 19.4741L135.439 19.4746L135.444 19.4749C135.682 19.4843 135.902 19.5174 136.106 19.573L136.112 19.5748L136.119 19.5762C136.781 19.7205 137.306 19.9956 137.703 20.3933L137.704 20.3944L137.705 20.3955C138.125 20.8059 138.429 21.2866 138.62 21.84V21.8414C138.815 22.3957 138.912 22.9637 138.912 23.5466Z" fill="#0C0C4F"/>
<path fill-rule="evenodd" clip-rule="evenodd" d="M117.901 35.9547L117.902 35.9564C118.218 36.8643 118.556 37.7931 118.914 38.743L118.98 38.9156H122.588C122.736 38.9156 122.839 38.7683 122.788 38.6291C122 36.4628 121.205 34.2994 120.393 32.1419C119.655 30.1606 118.929 28.2843 118.212 26.5131C117.516 24.7418 116.821 23.0545 116.125 21.4512C115.427 19.8216 114.692 18.2082 113.927 16.6092C113.891 16.5351 113.816 16.488 113.734 16.488H110.857C110.775 16.488 110.7 16.5351 110.664 16.6092C109.899 18.2082 109.165 19.8216 108.466 21.4513C107.771 23.054 107.065 24.7408 106.348 26.5118L106.347 26.5142C105.652 28.2849 104.936 30.1607 104.198 32.1418C103.387 34.2993 102.591 36.4628 101.803 38.6291C101.752 38.7683 101.855 38.9156 102.004 38.9156H105.457L105.525 38.9153L105.604 38.8304C106.437 37.9355 107.369 37.0572 108.398 36.1959L108.399 36.195L108.4 36.1941C109.434 35.3111 110.512 34.4921 111.634 33.7373L111.636 33.7355L111.639 33.7339C112.744 32.9527 113.856 32.2518 114.975 31.6308L114.976 31.6301L114.978 31.6294C115.381 31.3999 115.777 31.1861 116.168 30.9879L116.923 33.1454L116.924 33.1471C117.26 34.0935 117.586 35.0294 117.901 35.9547ZM114.02 25.3162L114.02 25.318L114.021 25.3198C114.325 26.0894 114.629 26.8719 114.933 27.6674C114.91 27.6774 114.887 27.6878 114.863 27.6986C113.794 28.1858 112.645 28.8157 111.415 29.5869C110.239 30.3253 109.071 31.1274 107.913 31.9934L108.404 30.5924C109.052 28.7716 109.701 27.0134 110.35 25.318C110.946 23.7889 111.567 22.3182 112.213 20.9057C112.84 22.3175 113.442 23.7877 114.02 25.3162Z" fill="#0C0C4F"/>
<path d="M102.683 19.6755V16.7015C102.683 16.5836 102.587 16.488 102.469 16.488H85.531C85.4131 16.488 85.3175 16.5836 85.3175 16.7015V19.6755H92.2019V38.702C92.2019 38.8199 92.2974 38.9156 92.4152 38.9156H95.5852C95.703 38.9156 95.7985 38.8199 95.7985 38.702V19.6755H102.683Z" fill="#0C0C4F"/>
<path d="M69.7754 38.6428C68.4707 38.0864 67.3849 37.2919 66.5246 36.2592L66.5234 36.2577C65.6716 35.2114 65.1179 33.9775 64.861 32.5638C64.8481 32.4931 64.8644 32.4202 64.906 32.3617C64.9475 32.303 65.011 32.2637 65.082 32.2524L67.951 31.8001C68.0868 31.7787 68.2166 31.864 68.2509 31.9972C68.5996 33.3525 69.3172 34.4045 70.4053 35.1669C71.5096 35.9229 72.8118 36.305 74.3232 36.305C75.3035 36.305 76.1796 36.1535 76.9551 35.8551C77.7399 35.5471 78.3487 35.1148 78.7933 34.5636C79.2307 34.0215 79.4514 33.3796 79.4514 32.6252C79.4514 32.1569 79.3685 31.7736 79.2146 31.4654L79.2106 31.457C79.0605 31.1288 78.8511 30.8548 78.5814 30.6314L78.5738 30.6248C78.303 30.3829 77.9921 30.1784 77.6396 30.0119C77.2791 29.8416 76.9031 29.7012 76.5117 29.5907L76.5082 29.5896L70.7849 27.8891C70.1479 27.6979 69.5318 27.4589 68.9369 27.1719L68.9354 27.1711L68.9336 27.1702C68.3295 26.8681 67.7885 26.4949 67.3117 26.0504L67.3101 26.049C66.8266 25.5874 66.4425 25.0377 66.1586 24.4044L66.1579 24.4029C65.8697 23.7483 65.7298 22.9872 65.7298 22.127C65.7298 20.7477 66.0862 19.5567 66.8107 18.5685C67.5383 17.5797 68.5194 16.828 69.7445 16.312C70.9678 15.7968 72.3402 15.5473 73.8573 15.5579C75.395 15.5685 76.7781 15.8445 78.0015 16.3919C79.2342 16.9282 80.2568 17.7028 81.0644 18.7151C81.8841 19.7296 82.4308 20.9402 82.7086 22.3401C82.7226 22.4107 82.7076 22.4837 82.667 22.5431C82.6263 22.6023 82.5635 22.6426 82.4928 22.655L79.5459 23.1698C79.476 23.1821 79.4041 23.1659 79.3461 23.1249C79.2882 23.0841 79.2489 23.0218 79.2369 22.9517C79.0881 22.0782 78.7577 21.3373 78.2495 20.7213L78.2466 20.7177C77.7441 20.0869 77.1138 19.6035 76.3516 19.2668L76.349 19.2656C75.5852 18.9183 74.7438 18.7381 73.8213 18.728C72.9369 18.7179 72.1465 18.8587 71.4459 19.145C70.7432 19.4321 70.1948 19.8283 69.7905 20.3291L69.789 20.331C69.3923 20.813 69.1948 21.3664 69.1948 22.0021C69.1948 22.6334 69.3747 23.1205 69.7152 23.4887C70.0828 23.8755 70.5345 24.1876 71.0748 24.4238C71.6474 24.6591 72.2036 24.8528 72.743 25.0056L77.0152 26.238C77.5131 26.3758 78.0818 26.5655 78.7202 26.8064C79.3885 27.0544 80.0329 27.404 80.6531 27.8533C81.2917 28.3051 81.816 28.9085 82.228 29.6566C82.6513 30.4146 82.854 31.3571 82.854 32.4693C82.854 33.5871 82.6283 34.5918 82.1698 35.4769C81.7247 36.3563 81.0999 37.0949 80.2984 37.6909L80.2965 37.6923C79.4995 38.274 78.5769 38.7133 77.5318 39.012C76.4866 39.3213 75.3698 39.475 74.1829 39.475C72.5619 39.475 71.0913 39.1994 69.7754 38.6428Z" fill="#0C0C4F"/>
<defs>
<linearGradient id="paint0_linear_2107_9022" x1="45.581" y1="18.8895" x2="-21.6566" y2="53.8572" gradientUnits="userSpaceOnUse">
<stop stop-color="#EC796B"/>
<stop offset="1" stop-color="#D672EF"/>
</linearGradient>
</defs>
</svg>
