<svg width="32" height="32" viewBox="0 0 32 32" fill="none" xmlns="http://www.w3.org/2000/svg">
<path d="M28.9362 2.89511C28.7124 2.70205 28.4401 2.57372 28.1486 2.52394C27.8572 2.47416 27.5578 2.50482 27.2825 2.61261L1.94999 12.5264C1.4902 12.7054 1.101 13.029 0.840962 13.4483C0.580922 13.8677 0.464106 14.3601 0.508093 14.8516C0.55208 15.3431 0.75449 15.807 1.08486 16.1735C1.41524 16.54 1.85571 16.7893 2.33999 16.8839L8.49999 18.0926V25.0001C8.49998 25.4985 8.64892 25.9855 8.9277 26.3986C9.20648 26.8117 9.60237 27.1321 10.0645 27.3186C10.5267 27.505 11.0341 27.5491 11.5215 27.4452C12.0089 27.3412 12.4541 27.0939 12.8 26.7351L15.6337 23.7964L20.2937 27.8751C20.6188 28.161 21.0125 28.3576 21.4364 28.4456C21.8602 28.5336 22.2997 28.5101 22.7117 28.3773C23.1237 28.2445 23.4942 28.0069 23.7868 27.688C24.0795 27.369 24.2843 26.9795 24.3812 26.5576L29.4587 4.48886C29.5248 4.20081 29.5111 3.90019 29.419 3.61937C29.3269 3.33854 29.16 3.08814 28.9362 2.89511ZM17.4262 9.69011L9.65249 15.2614L5.34874 14.4176L17.4262 9.69011ZM11.5 23.7576V20.1689L13.375 21.8126L11.5 23.7576ZM21.645 25.0726L12.41 16.9764L25.6987 7.45386L21.645 25.0726Z" fill="#1a1a1a"/>
</svg>
