<svg width="32" height="24" viewBox="0 0 32 24" fill="none" xmlns="http://www.w3.org/2000/svg">
<path d="M30.0533 4.55992C29.8867 3.93629 29.5596 3.36721 29.1046 2.90938C28.6496 2.45155 28.0825 2.12097 27.4599 1.95059C25.1733 1.33325 15.9999 1.33325 15.9999 1.33325C15.9999 1.33325 6.82659 1.33325 4.53992 1.95059C3.91733 2.12097 3.35027 2.45155 2.89525 2.90938C2.44023 3.36721 2.11314 3.93629 1.94659 4.55992C1.33325 6.86392 1.33325 11.6666 1.33325 11.6666C1.33325 11.6666 1.33325 16.4693 1.94659 18.7733C2.11294 19.3971 2.43993 19.9665 2.89497 20.4246C3.35 20.8826 3.91717 21.2134 4.53992 21.3839C6.82792 21.9999 15.9999 21.9999 15.9999 21.9999C15.9999 21.9999 25.1733 21.9999 27.4599 21.3839C28.0827 21.2134 28.6498 20.8826 29.1049 20.4246C29.5599 19.9665 29.8869 19.3971 30.0533 18.7733C30.6666 16.4719 30.6666 11.6666 30.6666 11.6666C30.6666 11.6666 30.6666 6.86392 30.0533 4.55992ZM12.9999 16.0279V7.30658L20.6666 11.6679L12.9999 16.0279Z" stroke="#3A3A3A" stroke-width="2.5" stroke-miterlimit="10" stroke-linejoin="round"/>
</svg>
