<svg width="229" height="63" viewBox="0 0 229 63" fill="none" xmlns="http://www.w3.org/2000/svg">
<g clip-path="url(#clip0_2107_8962)">
<path d="M36.9761 45.78C36.9761 44.94 36.3459 44.52 35.7156 44.52C34.455 44.52 32.7743 44.73 31.5138 44.73C24.3706 44.73 18.4881 38.85 18.4881 31.71V2.94V0.42C18.4881 0.21 18.278 0 18.0679 0H0.210092L0 0.21V31.5C0 48.93 14.0761 63 31.5138 63C33.1945 63 34.8752 62.79 36.556 62.58C36.7661 62.58 36.9761 62.37 36.9761 62.16V45.78Z" fill="#252C36"/>
<path d="M31.5138 0C29.8331 0 27.9422 0.21 26.2615 0.42C26.0514 0.42 25.8413 0.63 25.8413 0.84V17.22C25.8413 18.06 26.4716 18.69 27.1019 18.48C27.7321 18.48 31.3037 18.27 31.3037 18.27C38.4468 18.27 44.3294 24.15 44.3294 31.29V59.64C44.3294 59.85 44.5395 59.85 44.5395 59.85C55.4642 55.02 63.0275 44.1 63.0275 31.5C63.0275 14.07 48.9514 0 31.5138 0Z" fill="#252C36"/>
<path d="M132.778 13.02V4.62L122.694 5.45999V13.23H132.778V13.02ZM151.266 10.29L141.602 11.13V43.26C141.602 49.56 144.543 53.34 151.896 53.34C155.048 53.34 157.359 52.71 159.67 51.87V44.1C157.569 44.94 155.888 45.15 153.997 45.15C152.316 45.15 151.476 44.31 151.476 42.63V26.67H159.67V18.69H151.266V10.29ZM122.694 52.71H132.778V18.69H122.694V52.71ZM103.575 45.36C102.315 45.78 100.004 45.78 98.1128 45.78C94.9614 45.78 92.2302 45.78 90.5495 45.57V35.7H97.9027C103.155 35.7 105.466 37.17 105.466 40.74C105.256 42.63 104.626 44.1 103.575 45.36ZM90.3394 18.48C92.0202 18.48 94.1211 18.27 96.4321 18.27C101.894 18.27 104.205 19.95 104.205 23.31C104.205 25.2 103.365 26.67 101.684 27.93C100.214 28.14 98.533 28.35 96.6422 28.35C94.3312 28.35 92.0202 28.35 90.3394 28.14V18.48ZM108.827 30.87C111.979 28.98 114.71 26.04 114.71 21.63C114.71 14.28 109.038 10.29 97.0624 10.29H80.0449V52.71H99.7936C110.298 52.71 115.761 48.72 115.761 40.74C115.761 35.49 112.819 32.55 108.827 30.87ZM180.679 32.55C175.637 31.71 174.376 31.08 174.376 29.61C174.376 28.77 174.586 28.14 175.006 27.72C176.267 27.3 178.368 27.09 180.259 27.09C184.25 27.09 187.822 27.72 190.763 28.56V20.37C188.452 19.11 184.671 18.06 179.418 18.06C170.594 18.06 164.922 22.26 164.922 29.4C164.922 36.33 168.914 38.43 176.477 39.69C181.939 40.74 183.2 41.37 183.2 43.05C183.2 43.89 182.99 44.31 182.78 44.73C181.519 45.15 179.418 45.57 176.687 45.57C172.905 45.57 168.494 44.73 165.972 43.89V51.66C168.704 52.71 173.116 53.34 177.107 53.34C186.561 53.34 192.654 50.4 192.654 42.84C192.654 36.33 188.662 34.02 180.679 32.55ZM217.025 44.52C215.764 45.36 214.294 45.78 212.403 45.78C208.411 45.78 206.1 42.42 206.1 36.54C206.1 33.18 206.73 30.24 207.991 28.77C209.251 27.72 210.722 27.3 212.613 27.3C216.815 27.3 218.705 30.66 218.705 35.7C218.916 39.27 218.285 42.42 217.025 44.52ZM213.243 18.06C201.688 18.06 196.436 25.83 196.436 36.54C196.436 47.04 202.528 53.34 212.193 53.34C223.748 53.34 228.79 45.57 228.79 35.07C228.79 24.57 222.907 18.06 213.243 18.06Z" fill="#252C36"/>
</g>
<defs>
<clipPath id="clip0_2107_8962">
<rect width="229" height="63" fill="white"/>
</clipPath>
</defs>
</svg>
