<svg width="161" height="51" viewBox="0 0 161 51" fill="none" xmlns="http://www.w3.org/2000/svg">
<g clip-path="url(#clip0_2107_9003)">
<path d="M144.466 44.3938C136.093 44.3938 129.1 41.0583 128.172 33.0907C128.143 32.8442 128.32 32.6208 128.565 32.5895L137.157 31.485C137.426 31.4503 137.665 31.6575 137.688 31.929C138.033 35.8978 140.829 37.691 144.681 37.691C148.766 37.691 150.844 36.1773 150.844 33.5107C150.844 31.1322 148.121 30.2673 142.46 28.8978C135.58 27.2402 129.273 25.078 129.273 17.6543C129.273 9.72615 136.225 6.62695 143.965 6.62695C151.706 6.62695 158.342 9.19875 159.46 17.0727C159.495 17.3158 159.327 17.5425 159.087 17.5837L150.78 19.0085C150.509 19.055 150.259 18.8518 150.23 18.5767C149.846 14.9048 147.534 13.2578 144.108 13.2578C141.17 13.2578 138.733 14.3389 138.733 16.8615C138.733 19.312 141.313 20.177 146.115 21.258C152.493 22.6995 160.448 24.4293 160.448 33.0062C160.448 41.655 152.851 44.3938 144.466 44.3938Z" fill="url(#paint0_linear_2107_9003)"/>
<path d="M122.559 10.0589C125.426 12.9419 125.784 16.8339 125.784 21.5188V43.6168C125.784 43.8723 125.578 44.0794 125.324 44.0794H116.14C115.886 44.0794 115.68 43.8723 115.68 43.6168V22.3836C115.68 19.0681 115.393 17.3384 113.816 15.8248C112.527 14.5996 111.308 14.3833 109.158 14.3833C106.077 14.3833 102.493 16.4735 102.493 23.8971V43.6168C102.493 43.8723 102.287 44.0794 102.033 44.0794H92.9204C92.6663 44.0794 92.4604 43.8723 92.4604 43.6168V7.99889C92.4604 7.7434 92.6663 7.53629 92.9204 7.53629H101.962C102.216 7.53629 102.422 7.7434 102.422 7.99889V11.921C102.422 12.1426 102.749 12.2127 102.852 12.0166C104.868 8.1642 108.701 6.67139 113.028 6.67139C117.615 6.67139 120.266 7.7525 122.559 10.0589Z" fill="url(#paint1_linear_2107_9003)"/>
<path d="M84.5214 11.2622C88.0007 14.8207 89.7534 20.229 89.901 27.078C89.9065 27.3298 89.7081 27.5385 89.458 27.5465L64.1576 28.3508C63.9015 28.359 63.7008 28.5772 63.7184 28.8342C64.1108 34.5697 67.0571 37.4167 72.2887 37.2503C76.7033 37.11 78.9314 35.0998 79.6249 31.5855C79.6707 31.3528 79.8772 31.184 80.1127 31.1973L88.9245 31.6978C89.2082 31.7138 89.4097 31.9843 89.34 32.2615C87.3814 40.0475 81.5491 44.0948 72.513 44.3822C66.9258 44.5597 62.4282 42.9 59.3271 40.042C55.7824 36.7655 53.914 32.0657 53.7238 26.0143C53.5425 20.2513 54.9645 15.3026 58.3679 11.8052C61.4221 8.60742 65.6678 6.8139 71.2549 6.63628C76.9134 6.45638 81.4111 8.11617 84.5214 11.2622ZM71.4745 13.624C68.5376 13.7174 66.4876 14.6479 65.1833 16.4921C64.3068 17.7025 63.7966 19.2003 63.5964 20.9332C63.5647 21.207 63.7861 21.44 64.0602 21.4313L79.0134 20.9558C79.2848 20.9473 79.4904 20.705 79.4481 20.4352C79.1339 18.4327 78.5009 16.757 77.2705 15.5309C75.8643 14.1334 74.0531 13.542 71.4745 13.624Z" fill="url(#paint2_linear_2107_9003)"/>
<path d="M21.2554 0.964848L7.50302 23.6872C7.39517 23.8653 7.14457 23.8852 7.01079 23.7257C5.80009 22.2822 1.28958 16.1411 6.87087 10.5438C11.9638 5.43635 18.4508 1.79482 20.855 0.536231C21.1277 0.393438 21.415 0.701092 21.2554 0.964848Z" fill="url(#paint3_linear_2107_9003)"/>
<path d="M20.4865 50.4423C20.761 50.6351 21.0991 50.3061 20.9152 50.0253C17.8434 45.3338 7.63243 29.7241 6.22189 27.3808C4.83063 25.0696 2.09423 21.2286 1.86596 17.9425C1.84317 17.6143 1.3914 17.5478 1.27775 17.8563C1.09447 18.3538 0.899338 18.9476 0.717478 19.6261C-1.57835 28.1898 1.7559 37.2773 8.9972 42.3668L20.4865 50.4423Z" fill="url(#paint4_linear_2107_9003)"/>
<path d="M22.3769 50.0332L36.1293 27.3109C36.2372 27.1327 36.4878 27.1129 36.6216 27.2724C37.8322 28.7159 42.3427 34.8569 36.7615 40.4542C31.6686 45.5617 25.1816 49.2032 22.7774 50.4617C22.5047 50.6045 22.2172 50.2969 22.3769 50.0332Z" fill="url(#paint5_linear_2107_9003)"/>
<path d="M23.1441 0.557765C22.8697 0.364862 22.5315 0.693837 22.7155 0.974772C25.7873 5.66623 35.9984 21.2758 37.4089 23.6192C38.8001 25.9303 41.5364 29.7713 41.7648 33.0577C41.7876 33.3857 42.2394 33.4523 42.3531 33.1438C42.5363 32.6462 42.7313 32.0523 42.9132 31.3738C45.2091 22.8102 41.8749 13.7228 34.6335 8.63315L23.1441 0.557765Z" fill="url(#paint6_linear_2107_9003)"/>
</g>
<defs>
<linearGradient id="paint0_linear_2107_9003" x1="144.308" y1="6.62695" x2="144.308" y2="44.3938" gradientUnits="userSpaceOnUse">
<stop stop-color="#8F6DFF"/>
<stop offset="1" stop-color="#B678FF"/>
</linearGradient>
<linearGradient id="paint1_linear_2107_9003" x1="109.122" y1="6.67139" x2="109.122" y2="44.0794" gradientUnits="userSpaceOnUse">
<stop stop-color="#8F6DFF"/>
<stop offset="1" stop-color="#B678FF"/>
</linearGradient>
<linearGradient id="paint2_linear_2107_9003" x1="71.8048" y1="6.62305" x2="71.8048" y2="44.3951" gradientUnits="userSpaceOnUse">
<stop stop-color="#8F6DFF"/>
<stop offset="1" stop-color="#B678FF"/>
</linearGradient>
<linearGradient id="paint3_linear_2107_9003" x1="12.7214" y1="0.5" x2="12.7214" y2="23.834" gradientUnits="userSpaceOnUse">
<stop stop-color="#8F6DFF"/>
<stop offset="1" stop-color="#B678FF"/>
</linearGradient>
<linearGradient id="paint4_linear_2107_9003" x1="10.4838" y1="17.6572" x2="10.4838" y2="50.5" gradientUnits="userSpaceOnUse">
<stop stop-color="#8F6DFF"/>
<stop offset="1" stop-color="#B678FF"/>
</linearGradient>
<linearGradient id="paint5_linear_2107_9003" x1="30.9109" y1="27.1641" x2="30.9109" y2="50.498" gradientUnits="userSpaceOnUse">
<stop stop-color="#8F6DFF"/>
<stop offset="1" stop-color="#B678FF"/>
</linearGradient>
<linearGradient id="paint6_linear_2107_9003" x1="33.1469" y1="0.5" x2="33.1469" y2="33.3429" gradientUnits="userSpaceOnUse">
<stop stop-color="#8F6DFF"/>
<stop offset="1" stop-color="#B678FF"/>
</linearGradient>
<clipPath id="clip0_2107_9003">
<rect width="161" height="50" fill="white" transform="translate(0 0.5)"/>
</clipPath>
</defs>
</svg>
