<svg width="104" height="104" viewBox="0 0 104 104" fill="none" xmlns="http://www.w3.org/2000/svg">
<path d="M68.25 16.4856V13C68.25 10.4141 67.2228 7.93419 65.3943 6.10571C63.5658 4.27723 61.0859 3.25 58.5 3.25H45.5C42.9141 3.25 40.4342 4.27723 38.6057 6.10571C36.7772 7.93419 35.75 10.4141 35.75 13V16.4856C30.3391 17.2743 25.3922 19.9824 21.8123 24.1158C18.2323 28.2491 16.2581 33.5319 16.25 39V87.75C16.25 89.4739 16.9348 91.1272 18.1538 92.3462C19.3728 93.5652 21.0261 94.25 22.75 94.25H81.25C82.9739 94.25 84.6272 93.5652 85.8462 92.3462C87.0652 91.1272 87.75 89.4739 87.75 87.75V39C87.7419 33.5319 85.7677 28.2491 82.1877 24.1158C78.6078 19.9824 73.6609 17.2743 68.25 16.4856ZM45.5 9.75H58.5C59.362 9.75 60.1886 10.0924 60.7981 10.7019C61.4076 11.3114 61.75 12.138 61.75 13V16.25H42.25V13C42.25 12.138 42.5924 11.3114 43.2019 10.7019C43.8114 10.0924 44.638 9.75 45.5 9.75ZM68.25 65H35.75V61.75C35.75 60.888 36.0924 60.0614 36.7019 59.4519C37.3114 58.8424 38.138 58.5 39 58.5H65C65.862 58.5 66.6886 58.8424 67.2981 59.4519C67.9076 60.0614 68.25 60.888 68.25 61.75V65ZM35.75 71.5H55.25V74.75C55.25 75.612 55.5924 76.4386 56.2019 77.0481C56.8114 77.6576 57.638 78 58.5 78C59.362 78 60.1886 77.6576 60.7981 77.0481C61.4076 76.4386 61.75 75.612 61.75 74.75V71.5H68.25V87.75H35.75V71.5ZM81.25 87.75H74.75V61.75C74.75 59.1641 73.7228 56.6842 71.8943 54.8557C70.0658 53.0272 67.5859 52 65 52H39C36.4141 52 33.9342 53.0272 32.1057 54.8557C30.2772 56.6842 29.25 59.1641 29.25 61.75V87.75H22.75V39C22.75 34.6902 24.462 30.557 27.5095 27.5095C30.557 24.462 34.6902 22.75 39 22.75H65C69.3098 22.75 73.443 24.462 76.4905 27.5095C79.538 30.557 81.25 34.6902 81.25 39V87.75ZM61.75 35.75C61.75 36.612 61.4076 37.4386 60.7981 38.0481C60.1886 38.6576 59.362 39 58.5 39H45.5C44.638 39 43.8114 38.6576 43.2019 38.0481C42.5924 37.4386 42.25 36.612 42.25 35.75C42.25 34.888 42.5924 34.0614 43.2019 33.4519C43.8114 32.8424 44.638 32.5 45.5 32.5H58.5C59.362 32.5 60.1886 32.8424 60.7981 33.4519C61.4076 34.0614 61.75 34.888 61.75 35.75Z" fill="#FF4C52"/>
</svg>
