<svg width="151" height="63" viewBox="0 0 151 63" fill="none" xmlns="http://www.w3.org/2000/svg">
<g clip-path="url(#clip0_2107_8928)">
<path d="M18.8202 47.8547V63L0 36.0184L18.8202 47.8547Z" fill="url(#paint0_linear_2107_8928)"/>
<path d="M37.5119 36.0184L18.8201 63V47.8547L37.5119 36.0184Z" fill="url(#paint1_linear_2107_8928)"/>
<path d="M37.5119 32.2L18.8201 21.6366V44.0363L37.5119 32.2Z" fill="url(#paint2_linear_2107_8928)"/>
<path d="M37.5119 32.2L18.8201 0V21.6365L37.5119 32.2Z" fill="url(#paint3_linear_2107_8928)"/>
<path d="M18.8202 0V21.6365L0 32.2L18.8202 0Z" fill="url(#paint4_linear_2107_8928)"/>
<path d="M18.8202 21.6366V44.0363L0 32.2L18.8202 21.6366Z" fill="url(#paint5_linear_2107_8928)"/>
<path d="M46.8012 11.4847C46.7818 10.5108 47.0076 9.54735 47.4582 8.68084C47.8735 7.89042 48.5106 7.23487 49.2934 6.79269C50.1255 6.33603 51.0655 6.10572 52.0173 6.1253C52.9495 6.10996 53.868 6.3474 54.6729 6.81176C55.4536 7.27137 56.0866 7.93976 56.4988 8.73964C56.9479 9.61353 57.1735 10.5827 57.1558 11.5625V12.3634H49.5638C49.5727 12.6569 49.6425 12.9454 49.7688 13.2112C49.8951 13.477 50.0752 13.7144 50.2981 13.9087C50.7944 14.3189 51.4288 14.5299 52.0753 14.4998C52.572 14.5042 53.0624 14.3896 53.5044 14.1658C54.0434 13.8641 54.5267 13.4746 54.934 13.0137L56.6537 14.7493C56.0799 15.3841 55.3836 15.8996 54.6057 16.2656C53.8142 16.632 52.9494 16.8178 52.0753 16.8091C51.1112 16.8285 50.1588 16.5985 49.3127 16.1417C48.5233 15.7061 47.879 15.0535 47.4582 14.2631C47.0077 13.4056 46.7819 12.4504 46.8012 11.4847ZM54.3739 10.3783C54.3519 10.1089 54.2746 9.84664 54.1467 9.60762C54.0188 9.36859 53.843 9.15775 53.63 8.98792C53.1684 8.6328 52.6008 8.43837 52.0156 8.43493C51.4304 8.43148 50.8605 8.6192 50.3946 8.96885C49.9669 9.32967 49.6855 9.83091 49.6024 10.3803L54.3739 10.3783Z" fill="#30354B"/>
<path d="M58.9133 11.4656C58.8945 10.5009 59.1204 9.5469 59.5704 8.69038C59.9909 7.90058 60.6309 7.24558 61.4152 6.80222C62.2428 6.34241 63.1799 6.10926 64.1294 6.12689C65.2409 6.09953 66.3295 6.44205 67.2199 7.09937C68.0853 7.75196 68.7043 8.67195 68.9782 9.71252L66.3122 10.4371C66.213 9.93062 65.9563 9.46725 65.5779 9.11147C65.1758 8.77258 64.6575 8.59858 64.1294 8.62523C63.7901 8.60756 63.4511 8.66633 63.1381 8.7971C62.8251 8.92786 62.5463 9.1272 62.3229 9.38001C61.8603 9.9769 61.6307 10.7182 61.6759 11.4684C61.6306 12.2186 61.8603 12.9599 62.3229 13.5568C62.5463 13.8096 62.825 14.009 63.138 14.1398C63.451 14.2706 63.79 14.3293 64.1294 14.3115C64.6575 14.3382 65.1758 14.1642 65.5779 13.8253C65.9563 13.4695 66.213 13.0062 66.3122 12.4997L68.9782 13.2243C68.7045 14.2649 68.0854 15.1849 67.2199 15.8374C66.3295 16.4947 65.2409 16.8372 64.1294 16.8099C63.1799 16.8275 62.2428 16.5944 61.4152 16.1346C60.6307 15.6914 59.9907 15.0363 59.5704 14.2464C59.1194 13.3882 58.8935 12.4322 58.9133 11.4656Z" fill="#30354B"/>
<path d="M70.6393 11.4656C70.6205 10.5009 70.8464 9.54689 71.2963 8.69037C71.7169 7.90057 72.3568 7.24557 73.1411 6.80222C73.9785 6.35791 74.9143 6.12537 75.8649 6.12537C76.8155 6.12537 77.7513 6.35791 78.5886 6.80222C79.3729 7.24557 80.0129 7.90057 80.4334 8.69037C80.8832 9.54696 81.109 10.5009 81.0905 11.4656C81.1091 12.4303 80.8833 13.3843 80.4334 14.2408C80.013 15.0307 79.373 15.6858 78.5886 16.129C77.7513 16.5733 76.8155 16.8058 75.8649 16.8058C74.9143 16.8058 73.9785 16.5733 73.1411 16.129C72.3567 15.6858 71.7167 15.0307 71.2963 14.2408C70.8463 13.3843 70.6204 12.4303 70.6393 11.4656ZM78.3279 11.4656C78.3732 10.7153 78.1434 9.97398 77.6805 9.37723C77.4541 9.12315 77.1721 8.92319 76.8559 8.79244C76.5398 8.66168 76.1977 8.60355 75.8554 8.62244C75.5161 8.60475 75.1771 8.66351 74.8642 8.79428C74.5513 8.92505 74.2726 9.12439 74.0492 9.37723C73.5864 9.97398 73.3566 10.7153 73.4018 11.4656C73.3565 12.2159 73.5863 12.9573 74.0492 13.554C74.2848 13.7931 74.5667 13.983 74.8781 14.1124C75.1895 14.2418 75.524 14.308 75.8619 14.3071C76.1997 14.3062 76.534 14.2382 76.8447 14.1072C77.1554 13.9762 77.4362 13.7848 77.6704 13.5444C78.1365 12.9525 78.37 12.2142 78.3279 11.4656Z" fill="#30354B"/>
<path d="M82.6355 13.1821L85.147 12.6101C85.2915 13.1932 85.6361 13.7088 86.1223 14.0692C86.6477 14.4224 87.2741 14.5996 87.9092 14.5745C88.4124 14.5982 88.9153 14.5204 89.387 14.3457C89.5296 14.3028 89.6554 14.2174 89.7471 14.1013C89.8387 13.9852 89.8919 13.844 89.8992 13.697C89.8963 13.537 89.8449 13.3816 89.7517 13.2507C89.6585 13.1199 89.5277 13.0196 89.3762 12.9628C88.7616 12.7146 88.1196 12.5386 87.4634 12.4385C85.9435 12.1588 84.8585 11.7709 84.2083 11.2749C83.8911 11.0376 83.6368 10.7281 83.4669 10.3727C83.297 10.0174 83.2166 9.62681 83.2326 9.23421C83.224 8.64922 83.4146 8.07831 83.7738 7.613C84.1684 7.11683 84.6933 6.73704 85.2914 6.51499C86.0027 6.24345 86.7605 6.1107 87.5229 6.12409C88.6013 6.10528 89.6618 6.39681 90.5752 6.96309C91.4235 7.47275 92.0603 8.2639 92.3717 9.19488L89.9958 9.95761C89.8216 9.47347 89.4927 9.05839 89.0587 8.77498C88.5938 8.48636 88.0526 8.34037 87.5036 8.35548C87.0907 8.33674 86.6795 8.41859 86.3062 8.59383C86.1757 8.64961 86.0644 8.7414 85.9855 8.85818C85.9066 8.97495 85.8636 9.11174 85.8616 9.25208C85.8616 9.50633 86.0257 9.7129 86.3541 9.8718C86.9283 10.0985 87.5283 10.2554 88.1409 10.339C89.7125 10.6316 90.8362 11.0354 91.5119 11.5502C91.8436 11.8006 92.109 12.1264 92.2857 12.4999C92.4623 12.8734 92.5448 13.2836 92.5262 13.6954C92.5356 14.2911 92.3341 14.8714 91.9565 15.3361C91.5279 15.8396 90.9661 16.2159 90.3338 16.4229C89.5545 16.6897 88.7338 16.8188 87.9092 16.8043C86.681 16.8506 85.4688 16.5173 84.4417 15.8509C83.5217 15.2166 82.877 14.264 82.6355 13.1821Z" fill="#30354B"/>
<path d="M97.9333 16.1195L93.8586 6.41138H96.7556L99.3049 12.8771H99.3452L101.876 6.41138H104.773L98.8233 20.8115H95.9453L97.9333 16.1195Z" fill="#30354B"/>
<path d="M105.314 13.1822L107.825 12.6101C107.97 13.1931 108.314 13.7087 108.801 14.0692C109.326 14.4224 109.953 14.5996 110.588 14.5746C111.091 14.5983 111.594 14.5204 112.065 14.3457C112.208 14.3028 112.334 14.2175 112.425 14.1014C112.517 13.9853 112.57 13.844 112.577 13.697C112.575 13.537 112.523 13.3816 112.43 13.2508C112.337 13.1199 112.206 13.0196 112.054 12.9629C111.44 12.7146 110.798 12.5385 110.142 12.4385C108.622 12.1588 107.537 11.771 106.887 11.2749C106.569 11.0376 106.315 10.7281 106.145 10.3728C105.975 10.0174 105.895 9.62685 105.911 9.23424C105.902 8.64928 106.093 8.07844 106.452 7.61304C106.846 7.11752 107.371 6.73818 107.968 6.51622C108.68 6.24463 109.437 6.11188 110.2 6.12532C111.278 6.10657 112.339 6.3981 113.252 6.96432C114.1 7.47399 114.737 8.26515 115.048 9.1961L112.674 9.95884C112.5 9.47463 112.171 9.0595 111.737 8.7762C111.273 8.48742 110.731 8.34141 110.183 8.3567C109.77 8.33801 109.358 8.41986 108.985 8.59506C108.855 8.65109 108.744 8.743 108.665 8.85976C108.587 8.97652 108.544 9.11317 108.542 9.25331C108.542 9.50755 108.706 9.71413 109.034 9.87303C109.609 10.0997 110.209 10.2566 110.822 10.3402C112.393 10.6328 113.516 11.0366 114.192 11.5514C114.524 11.8019 114.789 12.1277 114.966 12.5012C115.143 12.8747 115.225 13.2848 115.206 13.6966C115.216 14.2924 115.015 14.8727 114.637 15.3373C114.208 15.8409 113.646 16.2171 113.014 16.4242C112.235 16.6909 111.414 16.82 110.59 16.8055C109.362 16.8518 108.149 16.5185 107.122 15.8521C106.201 15.2179 105.555 14.2648 105.314 13.1822Z" fill="#30354B"/>
<path d="M121.85 8.85245V12.9152C121.837 13.0488 121.852 13.1836 121.894 13.3114C121.935 13.4392 122.003 13.5574 122.092 13.6589C122.32 13.8329 122.607 13.9148 122.894 13.8881H125.231V16.5199H122.643C121.699 16.5799 120.764 16.2985 120.015 15.7282C119.7 15.4436 119.453 15.0929 119.293 14.7018C119.133 14.3107 119.063 13.8892 119.09 13.4682V8.85245H116.578V6.41132H119.09V3.8363H121.852V6.41132H125.87V8.85245H121.85Z" fill="#30354B"/>
<path d="M127.722 11.4846C127.703 10.5107 127.928 9.54731 128.379 8.68081C128.794 7.89052 129.432 7.23513 130.214 6.79305C131.046 6.33644 131.986 6.10613 132.938 6.12566C133.87 6.11034 134.788 6.34778 135.593 6.81212C136.374 7.27157 137.007 7.93981 137.42 8.7396C137.869 9.61349 138.094 10.5827 138.077 11.5625V12.3634H130.484C130.493 12.6568 130.562 12.9454 130.688 13.2112C130.815 13.477 130.995 13.7144 131.218 13.9087C131.714 14.3187 132.348 14.5297 132.995 14.4998C133.492 14.5041 133.982 14.3894 134.425 14.1657C134.963 13.864 135.447 13.4745 135.854 13.0137L137.573 14.7493C137 15.3841 136.303 15.8996 135.525 16.2656C134.734 16.632 133.869 16.8177 132.995 16.8091C132.031 16.8285 131.078 16.5984 130.232 16.1417C129.443 15.7062 128.799 15.0535 128.378 14.263C127.928 13.4055 127.702 12.4503 127.722 11.4846ZM135.295 10.3783C135.273 10.1089 135.196 9.84668 135.068 9.60766C134.94 9.36864 134.764 9.15778 134.551 8.98789C134.09 8.6328 133.522 8.43839 132.937 8.43494C132.352 8.43149 131.782 8.61919 131.316 8.96882C130.888 9.32974 130.607 9.83094 130.523 10.3803L135.295 10.3783Z" fill="#30354B"/>
<path d="M139.931 6.41133H142.365V7.28847H142.405C142.611 6.95728 142.9 6.68459 143.245 6.49714C143.592 6.31086 143.98 6.21513 144.375 6.21906C144.772 6.21811 145.162 6.32188 145.506 6.51965C145.849 6.71743 146.132 7.00204 146.326 7.34409H146.367C146.591 6.99053 146.905 6.70085 147.278 6.50359C147.651 6.30632 148.069 6.20826 148.491 6.21906C148.834 6.20769 149.175 6.27198 149.489 6.40723C149.803 6.54249 150.083 6.7453 150.307 7.00086C150.789 7.57168 151.037 8.29949 151.003 9.04156V16.5199H148.453V9.52025C148.461 9.39929 148.445 9.27786 148.406 9.16315C148.366 9.04844 148.303 8.94279 148.221 8.85247C148.133 8.77262 148.029 8.71119 147.916 8.67187C147.803 8.63256 147.683 8.61615 147.564 8.62365C147.444 8.61825 147.324 8.63844 147.212 8.68285C147.101 8.72727 147 8.79487 146.917 8.88107C146.748 9.07358 146.662 9.32322 146.676 9.57746V16.5199H144.261V9.52025C144.276 9.28085 144.196 9.04524 144.039 8.862C143.958 8.78022 143.86 8.71662 143.752 8.6755C143.643 8.63438 143.527 8.6167 143.412 8.62365C143.287 8.61765 143.162 8.63745 143.046 8.68178C142.929 8.72611 142.824 8.79399 142.735 8.88107C142.649 8.97507 142.582 9.08499 142.539 9.20451C142.496 9.32402 142.478 9.45077 142.484 9.57746V16.5199H139.935L139.931 6.41133Z" fill="#30354B"/>
<path d="M47.072 33.8394L49.5831 33.2669C49.7274 33.8502 50.0723 34.3659 50.5588 34.7261C51.084 35.0796 51.7105 35.257 52.3457 35.2318C52.8488 35.2555 53.3515 35.1776 53.8231 35.003C53.9657 34.9601 54.0914 34.8748 54.1831 34.7588C54.2747 34.6427 54.3279 34.5016 54.3353 34.3546C54.3325 34.1946 54.2811 34.0391 54.1879 33.9082C54.0946 33.7773 53.9638 33.6769 53.8123 33.6201C53.1979 33.3717 52.556 33.1957 51.8999 33.0957C50.3798 32.8161 49.2946 32.4282 48.6444 31.9322C48.3273 31.6948 48.073 31.3853 47.9032 31.03C47.7333 30.6746 47.653 30.284 47.6691 29.8915C47.6606 29.3065 47.851 28.7357 48.2099 28.2703C48.6045 27.7748 49.1289 27.3955 49.7264 27.1734C50.4376 26.9019 51.1954 26.7691 51.9578 26.7825C53.0362 26.7638 54.0967 27.0553 55.0101 27.6215C55.8583 28.1312 56.495 28.9224 56.8062 29.8533L54.4303 30.6165C54.2564 30.1322 53.9276 29.7169 53.4936 29.4334C53.0286 29.1447 52.4872 28.9987 51.9381 29.0139C51.5252 28.9953 51.114 29.0771 50.7407 29.2523C50.6106 29.3083 50.4996 29.4002 50.4211 29.517C50.3426 29.6338 50.2999 29.7704 50.2981 29.9105C50.2981 30.1648 50.4623 30.3714 50.7906 30.5303C51.3649 30.7568 51.9649 30.9137 52.5775 30.9974C54.1485 31.2903 55.2722 31.6941 55.9484 32.2087C56.5043 32.6604 56.861 33.3074 56.9436 34.0136C57.0261 34.7198 56.828 35.43 56.391 35.9949C55.9625 36.4985 55.4009 36.8747 54.7687 37.0818C53.9894 37.3485 53.1687 37.4776 52.3441 37.4632C51.1158 37.5095 49.9034 37.1762 48.8762 36.5097C47.9564 35.875 47.3123 34.9217 47.072 33.8394Z" fill="#30354B"/>
<path d="M58.7202 33.7441V27.0702H61.4827V33.1164C61.4827 34.35 62.1009 34.9667 63.3372 34.9664C63.5813 34.978 63.8252 34.939 64.0531 34.8519C64.281 34.7648 64.4879 34.6316 64.6605 34.4607C64.8286 34.2799 64.9586 34.068 65.0431 33.8373C65.1277 33.6065 65.165 33.3615 65.153 33.1164V27.0686H67.9176V37.1772H65.2709V36.2806H65.2327C64.9209 36.6577 64.5193 36.9526 64.0638 37.139C63.5743 37.3538 63.0444 37.4642 62.5087 37.4632C61.2979 37.4632 60.3642 37.1359 59.7075 36.4812C59.3654 36.1137 59.1017 35.6819 58.9321 35.2117C58.7625 34.7415 58.6904 34.2424 58.7202 33.7441Z" fill="#30354B"/>
<path d="M71.0259 27.0686H73.6713V27.9458H73.7096C74.0806 27.5642 74.5284 27.2635 75.0242 27.0632C75.5201 26.8628 76.0529 26.7672 76.5884 26.7826C77.4447 26.7702 78.2864 27.0019 79.0126 27.45C79.7383 27.9075 80.3175 28.559 80.6832 29.3286C81.0972 30.2024 81.3023 31.1584 81.2827 32.1229C81.2976 33.0716 81.0926 34.0111 80.6832 34.8695C80.3149 35.648 79.7326 36.3087 79.0026 36.7764C78.2701 37.2374 77.4167 37.4761 76.5482 37.4628C76.0143 37.4707 75.4836 37.3802 74.9834 37.1959C74.55 37.037 74.1551 36.7901 73.8242 36.4713H73.786V41.4684H71.0234L71.0259 27.0686ZM78.5209 32.1229C78.56 31.3777 78.3269 30.6434 77.8639 30.0536C77.6413 29.7963 77.3619 29.5928 77.0472 29.4589C76.7324 29.3249 76.3908 29.264 76.0485 29.2809C75.753 29.2768 75.4597 29.3312 75.186 29.441C74.9122 29.5508 74.6635 29.7137 74.4547 29.9201C74.24 30.119 74.0698 30.3601 73.955 30.6278C73.8403 30.8955 73.7835 31.1839 73.7884 31.4746V32.7903C73.7871 33.1681 73.8942 33.5384 74.0974 33.8585C74.3087 34.1946 74.6049 34.4706 74.9569 34.6594C75.3318 34.8652 75.7547 34.9705 76.1836 34.9649C76.5101 34.978 76.8351 34.9149 77.1322 34.7807C77.4292 34.6464 77.69 34.4448 77.8933 34.1922C78.3382 33.5947 78.56 32.8635 78.5209 32.1229Z" fill="#30354B"/>
<path d="M83.1375 27.0686H85.7842V27.9458H85.8245C86.1954 27.5642 86.6431 27.2635 87.1389 27.0632C87.6347 26.8628 88.1674 26.7673 88.7029 26.7826C89.5592 26.7702 90.4009 27.0019 91.1271 27.45C91.853 27.9074 92.4324 28.5589 92.7981 29.3286C93.212 30.2024 93.4169 31.1585 93.3972 32.1229C93.4123 33.0716 93.2073 34.0111 92.7981 34.8695C92.4298 35.648 91.8475 36.3087 91.1174 36.7764C90.3849 37.2373 89.5316 37.476 88.6631 37.4628C88.1293 37.4708 87.5988 37.3802 87.0987 37.1959C86.6652 37.0372 86.2702 36.7903 85.9395 36.4713H85.8993V41.4684H83.1367L83.1375 27.0686ZM90.633 32.1229C90.6721 31.3777 90.4389 30.6434 89.976 30.0536C89.7533 29.7963 89.4738 29.5929 89.159 29.4589C88.8442 29.325 88.5025 29.2641 88.1601 29.2809C87.8647 29.2768 87.5714 29.3313 87.2977 29.4411C87.0239 29.5509 86.7752 29.7138 86.5664 29.9201C86.3518 30.1191 86.1816 30.3601 86.0669 30.6278C85.9521 30.8955 85.8953 31.1839 85.9001 31.4746V32.7903C85.8989 33.168 86.0061 33.5384 86.2091 33.8585C86.4204 34.1946 86.7166 34.4706 87.0685 34.6594C87.4435 34.8651 87.8664 34.9704 88.2953 34.9649C88.6218 34.978 88.9468 34.9149 89.2438 34.7807C89.5409 34.6464 89.8017 34.4448 90.0049 34.1922C90.4501 33.5948 90.672 32.8636 90.633 32.1229Z" fill="#30354B"/>
<path d="M95.2496 32.123C95.2308 31.1583 95.4567 30.2042 95.9067 29.3477C96.3271 28.5578 96.9671 27.9028 97.7515 27.4596C98.5888 27.0153 99.5246 26.7827 100.475 26.7827C101.426 26.7827 102.362 27.0153 103.199 27.4596C103.983 27.9029 104.623 28.5579 105.044 29.3477C105.476 30.2106 105.701 31.1603 105.701 32.123C105.701 33.0856 105.476 34.0353 105.044 34.8982C104.623 35.6881 103.983 36.3431 103.199 36.7863C102.362 37.2306 101.426 37.4632 100.475 37.4632C99.5246 37.4632 98.5888 37.2306 97.7515 36.7863C96.9671 36.3431 96.3271 35.6881 95.9067 34.8982C95.4566 34.0417 95.2308 33.0877 95.2496 32.123ZM102.938 32.123C102.984 31.3726 102.754 30.6313 102.291 30.0346C102.064 29.7804 101.782 29.5805 101.466 29.4497C101.15 29.3189 100.808 29.2608 100.465 29.2798C100.126 29.2621 99.7872 29.3209 99.4743 29.4516C99.1615 29.5824 98.8829 29.7818 98.6596 30.0346C98.1968 30.6314 97.9672 31.3727 98.0126 32.123C97.9671 32.8732 98.1967 33.6146 98.6596 34.2113C98.8951 34.4505 99.177 34.6404 99.4884 34.7697C99.7998 34.8991 100.134 34.9653 100.472 34.9645C100.81 34.9636 101.144 34.8956 101.455 34.7646C101.766 34.6335 102.047 34.4422 102.281 34.2018C102.747 33.6099 102.98 32.8715 102.938 32.123Z" fill="#30354B"/>
<path d="M107.826 27.0686H110.472V28.003H110.512C110.89 27.6004 111.352 27.2829 111.865 27.0723C112.379 26.8617 112.932 26.7629 113.488 26.7826C114.322 26.7645 115.136 27.038 115.786 27.5549C116.45 28.1001 116.923 28.8375 117.139 29.6627L114.55 30.5017C114.434 30.1191 114.188 29.7874 113.854 29.5618C113.52 29.3363 113.118 29.2304 112.715 29.2619C112.422 29.2417 112.129 29.2851 111.855 29.389C111.581 29.4928 111.334 29.6546 111.131 29.8629C110.748 30.3268 110.555 30.9152 110.59 31.5123V37.1772H107.827L107.826 27.0686Z" fill="#30354B"/>
<path d="M123.782 29.5098V33.5725C123.769 33.7062 123.784 33.841 123.826 33.9688C123.867 34.0966 123.934 34.2148 124.023 34.3162C124.252 34.4902 124.538 34.572 124.825 34.545H127.163V37.1772H124.574C123.63 37.2371 122.696 36.9558 121.947 36.3859C121.631 36.1015 121.384 35.7508 121.224 35.3597C121.063 34.9687 120.993 34.5471 121.019 34.1259V29.5098H118.508V27.0687H121.019V24.4937H123.782V27.0687H127.8V29.5098H123.782Z" fill="#30354B"/>
<path d="M47.1877 47.726H49.834V48.6035H49.8743C50.2452 48.2218 50.6929 47.9211 51.1887 47.7206C51.6844 47.5201 52.2172 47.4244 52.7527 47.4395C53.609 47.4272 54.4508 47.659 55.1769 48.1073C55.9028 48.5648 56.4824 49.2163 56.8483 49.986C57.2618 50.8599 57.4667 51.8159 57.447 52.7803C57.462 53.7289 57.2572 54.6683 56.8483 55.5269C56.4799 56.3054 55.8974 56.9661 55.1673 57.4337C54.4348 57.8947 53.5814 58.1333 52.7129 58.1202C52.179 58.1281 51.6483 58.0376 51.1481 57.8532C50.7147 57.6943 50.3198 57.4475 49.9889 57.1286H49.9507V62.1257H47.1881L47.1877 47.726ZM54.6828 52.7803C54.722 52.0351 54.489 51.3008 54.0262 50.7109C53.8034 50.4538 53.5239 50.2504 53.2091 50.1165C52.8943 49.9826 52.5527 49.9216 52.2103 49.9383C51.9149 49.934 51.6216 49.9884 51.3478 50.0982C51.074 50.208 50.8254 50.371 50.6166 50.5775C50.4019 50.7764 50.2318 51.0174 50.117 51.2851C50.0023 51.5528 49.9455 51.8413 49.9503 52.1319V53.4476C49.949 53.8254 50.0561 54.1958 50.2593 54.5159C50.4706 54.8519 50.7668 55.1279 51.1188 55.3167C51.4937 55.5225 51.9166 55.6278 52.3455 55.6222C52.672 55.6354 52.997 55.5722 53.294 55.438C53.5911 55.3037 53.8519 55.1021 54.0551 54.8496C54.5001 54.2521 54.7219 53.5209 54.6828 52.7803Z" fill="#30354B"/>
<path d="M59.3772 47.726H62.0235V48.6603H62.0637C62.4416 48.2577 62.9029 47.9403 63.4162 47.7297C63.9295 47.519 64.4828 47.42 65.0383 47.4395C65.8728 47.4215 66.687 47.6952 67.337 48.2122C68.0007 48.7571 68.4738 49.4944 68.6893 50.3196L66.101 51.1591C65.9846 50.7765 65.739 50.4448 65.4051 50.2192C65.0712 49.9936 64.6691 49.8877 64.2658 49.9192C63.9733 49.8991 63.6799 49.9425 63.4063 50.0463C63.1326 50.1501 62.8853 50.3119 62.6817 50.5203C62.2989 50.984 62.1059 51.5724 62.1406 52.1697V57.8345H59.3784L59.3772 47.726Z" fill="#30354B"/>
<path d="M69.8666 52.7802C69.8478 51.8155 70.0735 50.8615 70.5232 50.0049C70.944 49.2152 71.5841 48.5602 72.3684 48.1168C73.2057 47.6722 74.1415 47.4395 75.0922 47.4395C76.0428 47.4395 76.9787 47.6722 77.8159 48.1168C78.6 48.5603 79.2398 49.2152 79.6603 50.0049C80.0925 50.8678 80.3173 51.8175 80.3173 52.7802C80.3173 53.7428 80.0925 54.6925 79.6603 55.5554C79.2399 56.3452 78.5999 57.0001 77.8155 57.4432C76.9782 57.8875 76.0424 58.12 75.0918 58.12C74.1412 58.12 73.2054 57.8875 72.368 57.4432C71.5834 57 70.9433 56.345 70.5228 55.555C70.0733 54.6985 69.8477 53.7447 69.8666 52.7802ZM77.5552 52.7802C77.6003 52.0299 77.3705 51.2886 76.9078 50.6918C76.6813 50.4377 76.3993 50.2378 76.083 50.107C75.7668 49.9762 75.4246 49.9181 75.0823 49.937C74.743 49.9193 74.404 49.9781 74.0911 50.1089C73.7782 50.2397 73.4995 50.439 73.2761 50.6918C72.8546 51.3087 72.6294 52.036 72.6294 52.7802C72.6294 53.5244 72.8546 54.2516 73.2761 54.8685C73.5117 55.1077 73.7935 55.2976 74.1049 55.427C74.4163 55.5563 74.7509 55.6226 75.0888 55.6217C75.4266 55.6208 75.7608 55.5528 76.0715 55.4218C76.3822 55.2908 76.6631 55.0994 76.8973 54.859C77.3635 54.2672 77.5972 53.5288 77.5552 52.7802Z" fill="#30354B"/>
<path d="M82.7321 60.0849L84.838 58.5022C85.1378 58.9652 85.5359 59.3583 86.0048 59.6543C86.4529 59.8901 86.9559 60.0054 87.4634 59.9884C88.0928 60.0208 88.7099 59.8084 89.1826 59.3968C89.4004 59.1835 89.5698 58.927 89.6796 58.6443C89.7895 58.3615 89.8373 58.0589 89.82 57.7566V57.032H89.7817C89.4474 57.3859 89.043 57.6683 88.5936 57.8615C88.1101 58.0445 87.5948 58.132 87.0771 58.1189C86.2071 58.1352 85.3512 57.9005 84.6143 57.4435C83.8904 56.9824 83.3142 56.3276 82.953 55.5554C82.5463 54.6863 82.3447 53.7374 82.3635 52.7802C82.3462 51.8272 82.5547 50.8833 82.9723 50.024C83.3465 49.2519 83.9276 48.5957 84.6525 48.1263C85.3807 47.6645 86.231 47.4255 87.0964 47.4394C87.6042 47.4269 88.1097 47.5112 88.5851 47.6877C89.0132 47.8636 89.4009 48.123 89.725 48.4505H89.7652V47.7259H92.4313V57.8726C92.4469 58.7031 92.2295 59.5217 91.8032 60.2378C91.3849 60.9239 90.7787 61.4792 90.0545 61.8396C88.8155 62.4222 87.4111 62.5658 86.0775 62.2462C84.7438 61.9267 83.5623 61.1634 82.7317 60.0849H82.7321ZM89.6671 53.4285V52.1128C89.681 51.8209 89.6332 51.5294 89.5268 51.2568C89.4204 50.9842 89.2577 50.7365 89.049 50.5293C88.8382 50.3316 88.5894 50.1775 88.3174 50.076C88.0454 49.9745 87.7556 49.9277 87.465 49.9382C87.1394 49.9247 86.8152 49.9867 86.5183 50.1192C86.2214 50.2517 85.9601 50.4511 85.7554 50.7013C85.3443 51.3155 85.1259 52.0359 85.1277 52.7721C85.1294 53.5083 85.3511 54.2276 85.765 54.8399C85.9631 55.0916 86.2185 55.2937 86.5105 55.4296C86.8026 55.5655 87.123 55.6315 87.4457 55.6221C87.8299 55.6227 88.2071 55.5206 88.5373 55.3266C88.8753 55.1326 89.1578 54.8569 89.3581 54.5253C89.5622 54.1951 89.6692 53.8153 89.6671 53.4285Z" fill="#30354B"/>
<path d="M95.3274 47.726H97.9737V48.6603H98.0139C98.3918 48.2577 98.8532 47.9403 99.3666 47.7296C99.88 47.519 100.433 47.42 100.989 47.4396C101.823 47.4215 102.638 47.6952 103.288 48.2122C103.951 48.7571 104.424 49.4944 104.64 50.3197L102.052 51.1591C101.935 50.7764 101.69 50.4446 101.356 50.219C101.022 49.9935 100.619 49.8876 100.216 49.9192C99.9236 49.8991 99.6303 49.9425 99.3567 50.0463C99.083 50.1502 98.8358 50.3119 98.6323 50.5203C98.2495 50.984 98.0565 51.5724 98.0912 52.1697V57.8345H95.329L95.3274 47.726Z" fill="#30354B"/>
<path d="M106.067 55.1264C106.045 54.711 106.122 54.2963 106.292 53.9154C106.461 53.5345 106.718 53.198 107.043 52.9328C107.693 52.4116 108.778 52.0301 110.298 51.7883C110.861 51.7274 111.411 51.5828 111.93 51.3592C112.057 51.3048 112.165 51.2157 112.242 51.1026C112.319 50.9894 112.362 50.8568 112.365 50.7205C112.367 50.5731 112.328 50.428 112.253 50.3005C112.178 50.1729 112.07 50.0676 111.94 49.9955C111.587 49.8003 111.185 49.7078 110.781 49.7285C110.257 49.7185 109.746 49.8944 109.342 50.2243C108.934 50.5594 108.657 51.025 108.56 51.5404L105.99 50.9683C106.113 50.2936 106.413 49.6623 106.86 49.1374C107.32 48.5959 107.902 48.1681 108.56 47.888C109.26 47.5855 110.017 47.4327 110.781 47.4395C111.934 47.3827 113.064 47.7729 113.93 48.5268C114.324 48.8993 114.633 49.3508 114.837 49.8509C115.04 50.3511 115.133 50.8884 115.108 51.4268V57.8353H112.635V56.7099H112.597C112.289 57.1652 111.856 57.5256 111.35 57.7495C110.783 58.0041 110.166 58.1311 109.544 58.1213C108.923 58.132 108.308 58.0015 107.747 57.74C107.242 57.5056 106.813 57.1354 106.511 56.6717C106.214 56.2103 106.059 55.6732 106.067 55.1264ZM112.481 54.0773V52.9328H112.441C112.302 53.1424 112.099 53.3028 111.861 53.3908C111.448 53.5448 111.022 53.6598 110.587 53.734C110.067 53.8169 109.565 53.981 109.098 54.2203C108.972 54.2928 108.868 54.3974 108.796 54.5232C108.725 54.6489 108.689 54.7913 108.692 54.9353C108.686 55.068 108.716 55.1998 108.779 55.3172C108.842 55.4346 108.935 55.5333 109.05 55.6031C109.365 55.7743 109.724 55.8537 110.083 55.8319C110.488 55.8333 110.89 55.7522 111.262 55.5936C111.608 55.4544 111.914 55.2314 112.15 54.9453C112.359 54.7023 112.476 54.3957 112.481 54.0773Z" fill="#30354B"/>
<path d="M117.639 47.7259H120.073V48.6034H120.113C120.319 48.2723 120.608 47.9995 120.953 47.8117C121.299 47.6255 121.689 47.5298 122.083 47.5336C122.48 47.5327 122.871 47.6366 123.214 47.8344C123.557 48.0323 123.84 48.3169 124.035 48.659H124.075C124.3 48.3054 124.614 48.0157 124.986 47.8183C125.359 47.621 125.777 47.5229 126.2 47.5336C126.543 47.5223 126.883 47.5867 127.197 47.722C127.512 47.8573 127.791 48.0602 128.016 48.3158C128.497 48.8867 128.745 49.6147 128.711 50.3569V57.8333H126.161V50.8336C126.17 50.7127 126.154 50.5913 126.114 50.4766C126.074 50.3619 126.011 50.2562 125.93 50.1658C125.841 50.0861 125.738 50.0247 125.625 49.9854C125.512 49.9461 125.392 49.9296 125.273 49.937C125.152 49.9316 125.032 49.9519 124.92 49.9964C124.809 50.0408 124.708 50.1085 124.625 50.1948C124.457 50.3872 124.37 50.6367 124.384 50.8908V57.8333H121.97V50.8336C121.984 50.5944 121.904 50.3589 121.748 50.1758C121.666 50.0939 121.568 50.0303 121.46 49.9892C121.352 49.9481 121.236 49.9304 121.12 49.9374C120.995 49.9313 120.871 49.9511 120.754 49.9956C120.638 50.04 120.532 50.108 120.443 50.1952C120.357 50.2891 120.291 50.399 120.247 50.5184C120.204 50.6379 120.186 50.7646 120.192 50.8912V57.8337H117.643L117.639 47.7259Z" fill="#30354B"/>
</g>
<defs>
<linearGradient id="paint0_linear_2107_8928" x1="-0.418853" y1="36.432" x2="22.3611" y2="59.5044" gradientUnits="userSpaceOnUse">
<stop stop-color="#F47D51"/>
<stop offset="0.96" stop-color="#DF72AC"/>
</linearGradient>
<linearGradient id="paint1_linear_2107_8928" x1="22.6002" y1="44.014" x2="30.234" y2="51.7458" gradientUnits="userSpaceOnUse">
<stop stop-color="#F15D4C"/>
<stop offset="1" stop-color="#C36CA1"/>
</linearGradient>
<linearGradient id="paint2_linear_2107_8928" x1="15.126" y1="25.2437" x2="28.1164" y2="38.4008" gradientUnits="userSpaceOnUse">
<stop stop-color="#B46947"/>
<stop offset="0.896" stop-color="#AE5262"/>
</linearGradient>
<linearGradient id="paint3_linear_2107_8928" x1="28.166" y1="0" x2="28.166" y2="32.2" gradientUnits="userSpaceOnUse">
<stop stop-color="#FFD663"/>
<stop offset="1" stop-color="#F26C7D"/>
</linearGradient>
<linearGradient id="paint4_linear_2107_8928" x1="5.9621" y1="12.6955" x2="16.7793" y2="23.6516" gradientUnits="userSpaceOnUse">
<stop stop-color="#FFF171"/>
<stop offset="1" stop-color="#FAB382"/>
</linearGradient>
<linearGradient id="paint5_linear_2107_8928" x1="7.38" y1="24.914" x2="22.5476" y2="40.2762" gradientUnits="userSpaceOnUse">
<stop stop-color="#D48A3D"/>
<stop offset="0.795" stop-color="#DB474E"/>
</linearGradient>
<clipPath id="clip0_2107_8928">
<rect width="151" height="63" fill="white"/>
</clipPath>
</defs>
</svg>
