<svg width="104" height="104" viewBox="0 0 104 104" fill="none" xmlns="http://www.w3.org/2000/svg">
<path d="M87.75 16.25H16.25C14.5261 16.25 12.8728 16.9348 11.6538 18.1538C10.4348 19.3728 9.75 21.0261 9.75 22.75V81.25C9.75 82.9739 10.4348 84.6272 11.6538 85.8462C12.8728 87.0652 14.5261 87.75 16.25 87.75H21.6897C22.3048 87.7502 22.9073 87.5759 23.4272 87.2472C23.9472 86.9186 24.3632 86.4491 24.6269 85.8934C26.2073 82.5568 28.7024 79.7374 31.8222 77.7631C34.9419 75.7887 38.558 74.7406 42.25 74.7406C45.942 74.7406 49.5581 75.7887 52.6778 77.7631C55.7976 79.7374 58.2927 82.5568 59.8731 85.8934C60.1368 86.4491 60.5528 86.9186 61.0728 87.2472C61.5927 87.5759 62.1952 87.7502 62.8103 87.75H87.75C89.4739 87.75 91.1272 87.0652 92.3462 85.8462C93.5652 84.6272 94.25 82.9739 94.25 81.25V22.75C94.25 21.0261 93.5652 19.3728 92.3462 18.1538C91.1272 16.9348 89.4739 16.25 87.75 16.25ZM32.5 58.5C32.5 56.5716 33.0718 54.6866 34.1432 53.0832C35.2145 51.4798 36.7373 50.2301 38.5188 49.4922C40.3004 48.7542 42.2608 48.5611 44.1521 48.9373C46.0434 49.3135 47.7807 50.2421 49.1443 51.6057C50.5079 52.9693 51.4365 54.7066 51.8127 56.5979C52.1889 58.4892 51.9958 60.4496 51.2578 62.2312C50.5199 64.0127 49.2702 65.5355 47.6668 66.6068C46.0634 67.6782 44.1784 68.25 42.25 68.25C39.6641 68.25 37.1842 67.2228 35.3557 65.3943C33.5272 63.5658 32.5 61.0859 32.5 58.5ZM87.75 81.25H64.7684C62.0544 76.5839 57.9633 72.8717 53.0563 70.6225C55.5164 68.4319 57.2528 65.5453 58.0351 62.3455C58.8174 59.1456 58.6087 55.7835 57.4368 52.7049C56.2648 49.6263 54.1848 46.9766 51.4727 45.107C48.7605 43.2374 45.5441 42.2363 42.25 42.2363C38.9559 42.2363 35.7395 43.2374 33.0273 45.107C30.3152 46.9766 28.2352 49.6263 27.0632 52.7049C25.8913 55.7835 25.6826 59.1456 26.4649 62.3455C27.2472 65.5453 28.9836 68.4319 31.4438 70.6225C26.5367 72.8717 22.4456 76.5839 19.7316 81.25H16.25V22.75H87.75V81.25ZM22.75 39V32.5C22.75 31.638 23.0924 30.8114 23.7019 30.2019C24.3114 29.5924 25.138 29.25 26 29.25H78C78.862 29.25 79.6886 29.5924 80.2981 30.2019C80.9076 30.8114 81.25 31.638 81.25 32.5V71.5C81.25 72.362 80.9076 73.1886 80.2981 73.7981C79.6886 74.4076 78.862 74.75 78 74.75H71.5C70.638 74.75 69.8114 74.4076 69.2019 73.7981C68.5924 73.1886 68.25 72.362 68.25 71.5C68.25 70.638 68.5924 69.8114 69.2019 69.2019C69.8114 68.5924 70.638 68.25 71.5 68.25H74.75V35.75H29.25V39C29.25 39.862 28.9076 40.6886 28.2981 41.2981C27.6886 41.9076 26.862 42.25 26 42.25C25.138 42.25 24.3114 41.9076 23.7019 41.2981C23.0924 40.6886 22.75 39.862 22.75 39Z" fill="#FF4C52"/>
</svg>
