<svg width="50" height="51" viewBox="0 0 50 51" fill="none" xmlns="http://www.w3.org/2000/svg">
<g clip-path="url(#clip0_2107_8998)">
<path d="M25 50.5C38.8071 50.5 50 39.3071 50 25.5C50 11.6929 38.8071 0.5 25 0.5C11.1929 0.5 0 11.6929 0 25.5C0 39.3071 11.1929 50.5 25 50.5Z" fill="#6747ED"/>
<path fill-rule="evenodd" clip-rule="evenodd" d="M24.6355 28.7292C20.9376 28.7292 17.9688 25.7604 17.9688 22.0625C17.9688 18.3646 20.9376 15.3958 24.6355 15.3958C28.3334 15.3958 31.3022 18.3646 31.3022 22.0625C31.3022 25.7604 28.3334 28.7292 24.6355 28.7292ZM24.6355 12.0625C30.1563 12.0625 34.6355 16.5417 34.6355 22.0625C34.6355 27.5833 30.1563 32.0625 24.6355 32.0625C19.1147 32.0625 14.6355 27.5833 14.6355 22.0625C14.6355 16.5417 19.1147 12.0625 24.6355 12.0625ZM34.1668 32.5833C34.8438 33.2604 34.8438 34.3021 34.1668 34.9271L27.5001 41.5937C26.823 42.2708 25.7813 42.2708 25.1563 41.5937C24.4793 40.9167 24.4793 39.875 25.1563 39.25L31.823 32.5833C32.448 31.9062 33.5418 31.9062 34.1668 32.5833ZM38.0209 13.7292C38.0209 14.6667 37.2918 15.3958 36.3543 15.3958C35.4168 15.3958 34.6876 14.6667 34.6876 13.7292C34.6876 12.7917 35.4168 12.0625 36.3543 12.0625C37.2397 12.0625 38.0209 12.7917 38.0209 13.7292Z" fill="white"/>
</g>
<defs>
<clipPath id="clip0_2107_8998">
<rect width="50" height="50" fill="white" transform="translate(0 0.5)"/>
</clipPath>
</defs>
</svg>
